{
	"asset":{
		"generator":"Khronos glTF Blender I/O v5.0.21",
		"version":"2.0"
	},
	"extensionsUsed":[
		"KHR_materials_specular",
		"KHR_materials_ior"
	],
	"scene":0,
	"scenes":[
		{
			"name":"Scene",
			"nodes":[
				137
			]
		}
	],
	"nodes":[
		{
			"name":"mSkull",
			"translation":[
				0,
				0,
				0.07903969287872314
			]
		},
		{
			"name":"mEyeRight",
			"translation":[
				0.09959042072296143,
				-0.03600902482867241,
				0.07901954650878906
			]
		},
		{
			"name":"mEyeLeft",
			"translation":[
				0.09958577156066895,
				0.03600902482867241,
				0.07901954650878906
			]
		},
		{
			"name":"mFaceEyeAltRight",
			"translation":[
				0.07301826775074005,
				-0.03676500543951988,
				0.0332944393157959
			]
		},
		{
			"name":"mFaceEyeAltLeft",
			"translation":[
				0.07301826775074005,
				0.03676500543951988,
				0.0332944393157959
			]
		},
		{
			"name":"mFaceForeheadLeft",
			"translation":[
				0.06101524829864502,
				0.035008754581213,
				0.08300697803497314
			]
		},
		{
			"name":"mFaceForeheadRight",
			"translation":[
				0.06101524829864502,
				-0.035008754581213,
				0.08300697803497314
			]
		},
		{
			"name":"mFaceEyebrowOuterLeft",
			"translation":[
				0.06401601433753967,
				0.051012761890888214,
				0.04801011085510254
			]
		},
		{
			"name":"mFaceEyebrowCenterLeft",
			"translation":[
				0.07001751661300659,
				0.043010760098695755,
				0.05601227283477783
			]
		},
		{
			"name":"mFaceEyebrowInnerLeft",
			"translation":[
				0.07501877844333649,
				0.022005503997206688,
				0.051010966300964355
			]
		},
		{
			"name":"mFaceEyebrowOuterRight",
			"translation":[
				0.06401601433753967,
				-0.051012761890888214,
				0.04801011085510254
			]
		},
		{
			"name":"mFaceEyebrowCenterRight",
			"translation":[
				0.07001751661300659,
				-0.043010760098695755,
				0.05601227283477783
			]
		},
		{
			"name":"mFaceEyebrowInnerRight",
			"translation":[
				0.07501877844333649,
				-0.022005503997206688,
				0.051010966300964355
			]
		},
		{
			"name":"mFaceEyeLidUpperLeft",
			"translation":[
				0.07301826775074005,
				0.03600900620222092,
				0.034006714820861816
			]
		},
		{
			"name":"mFaceEyeLidLowerLeft",
			"translation":[
				0.07301826775074005,
				0.03600900620222092,
				0.034006714820861816
			]
		},
		{
			"name":"mFaceEyeLidUpperRight",
			"translation":[
				0.07301826775074005,
				-0.03600900620222092,
				0.034006714820861816
			]
		},
		{
			"name":"mFaceEyeLidLowerRight",
			"translation":[
				0.07301826775074005,
				-0.03600900620222092,
				0.034006714820861816
			]
		},
		{
			"name":"mFaceEar2Left",
			"translation":[
				-0.01899999938905239,
				0.017999999225139618,
				0.02499997615814209
			]
		},
		{
			"children":[
				17
			],
			"name":"mFaceEar1Left",
			"translation":[
				-3.026070771738887e-08,
				0.0800199955701828,
				0.001996159553527832
			]
		},
		{
			"name":"mFaceEar2Right",
			"translation":[
				-0.01899999938905239,
				-0.017999999225139618,
				0.02499997615814209
			]
		},
		{
			"children":[
				19
			],
			"name":"mFaceEar1Right",
			"translation":[
				-3.026070771738887e-08,
				-0.0800199955701828,
				0.001996159553527832
			]
		},
		{
			"name":"mFaceNoseLeft",
			"translation":[
				0.0860215276479721,
				0.015003752894699574,
				-0.004002690315246582
			]
		},
		{
			"name":"mFaceNoseCenter",
			"translation":[
				0.10202573239803314,
				0,
				6.9141387939453125e-06
			]
		},
		{
			"name":"mFaceNoseRight",
			"translation":[
				0.0860215276479721,
				-0.015003752894699574,
				-0.004002690315246582
			]
		},
		{
			"name":"mFaceCheekLowerLeft",
			"translation":[
				0.050012506544589996,
				0.03400850668549538,
				-0.031009554862976074
			]
		},
		{
			"name":"mFaceCheekUpperLeft",
			"translation":[
				0.07001751661300659,
				0.03400850668549538,
				-0.0050029754638671875
			]
		},
		{
			"name":"mFaceCheekLowerRight",
			"translation":[
				0.050012506544589996,
				-0.03400850668549538,
				-0.031009554862976074
			]
		},
		{
			"name":"mFaceCheekUpperRight",
			"translation":[
				0.07001751661300659,
				-0.03400850668549538,
				-0.0050029754638671875
			]
		},
		{
			"name":"mFaceChin",
			"translation":[
				0.07401850819587708,
				0,
				-0.05433034896850586
			]
		},
		{
			"name":"mFaceLipLowerLeft",
			"translation":[
				0.045011259615421295,
				0,
				0
			]
		},
		{
			"name":"mFaceLipLowerRight",
			"translation":[
				0.045011259615421295,
				0,
				0
			]
		},
		{
			"name":"mFaceLipLowerCenter",
			"translation":[
				0.045011259615421295,
				0,
				0
			]
		},
		{
			"name":"mFaceTongueTip",
			"translation":[
				0.02200549840927124,
				0,
				0.0070018768310546875
			]
		},
		{
			"children":[
				32
			],
			"name":"mFaceTongueBase",
			"translation":[
				0.039009757339954376,
				0,
				0.0050013065338134766
			]
		},
		{
			"children":[
				29,
				30,
				31,
				33
			],
			"name":"mFaceTeethLower",
			"translation":[
				0.021005256101489067,
				0,
				-0.03932666778564453
			]
		},
		{
			"children":[
				28,
				34
			],
			"name":"mFaceJaw",
			"translation":[
				-0.0010002501076087356,
				0,
				-0.014688730239868164
			]
		},
		{
			"name":"mFaceJawShaper",
			"translation":[
				0,
				0,
				-1.9073486328125e-06
			]
		},
		{
			"name":"mFaceForeheadCenter",
			"translation":[
				0.06901726126670837,
				0,
				0.06501448154449463
			]
		},
		{
			"name":"mFaceNoseBase",
			"translation":[
				0.09402352571487427,
				0,
				-0.018006324768066406
			]
		},
		{
			"name":"mFaceLipUpperLeft",
			"translation":[
				0.0450112521648407,
				0,
				-0.0040634870529174805
			]
		},
		{
			"name":"mFaceLipUpperRight",
			"translation":[
				0.0450112521648407,
				0,
				-0.0040634870529174805
			]
		},
		{
			"name":"mFaceLipCornerLeft",
			"translation":[
				0.02800700254738331,
				-0.01900475285947323,
				-0.010002374649047852
			]
		},
		{
			"name":"mFaceLipCornerRight",
			"translation":[
				0.02800700254738331,
				0.01900475285947323,
				-0.010002374649047852
			]
		},
		{
			"name":"mFaceLipUpperCenter",
			"translation":[
				0.0450112521648407,
				0,
				-0.0026541948318481445
			]
		},
		{
			"children":[
				39,
				40,
				41,
				42,
				43
			],
			"name":"mFaceTeethUpper",
			"translation":[
				0.020005004480481148,
				0,
				-0.03000926971435547
			]
		},
		{
			"name":"mFaceEyecornerInnerLeft",
			"translation":[
				0.07501877844333649,
				0.01700425334274769,
				0.03200638294219971
			]
		},
		{
			"name":"mFaceEyecornerInnerRight",
			"translation":[
				0.07501877844333649,
				-0.01700425334274769,
				0.03200638294219971
			]
		},
		{
			"name":"mFaceNoseBridge",
			"translation":[
				0.09102277457714081,
				0,
				0.020003199577331543
			]
		},
		{
			"children":[
				3,
				4,
				5,
				6,
				7,
				8,
				9,
				10,
				11,
				12,
				13,
				14,
				15,
				16,
				18,
				20,
				21,
				22,
				23,
				24,
				25,
				26,
				27,
				35,
				36,
				37,
				38,
				44,
				45,
				46,
				47
			],
			"name":"mFaceRoot",
			"translation":[
				0.025006253272294998,
				0,
				0.0450129508972168
			]
		},
		{
			"children":[
				0,
				1,
				2,
				48
			],
			"name":"mHead",
			"translation":[
				-1.862645149230957e-07,
				0,
				0.07652413845062256
			]
		},
		{
			"children":[
				49
			],
			"name":"mNeck",
			"translation":[
				-0.009510542266070843,
				0,
				0.25032055377960205
			]
		},
		{
			"name":"mHandMiddle3Left",
			"translation":[
				-0.000999998301267624,
				0.04899996519088745,
				-0.008000016212463379
			]
		},
		{
			"children":[
				51
			],
			"name":"mHandMiddle2Left",
			"translation":[
				-0.0010000001639127731,
				0.04000002145767212,
				-0.005999922752380371
			]
		},
		{
			"children":[
				52
			],
			"name":"mHandMiddle1Left",
			"translation":[
				0.012999998405575752,
				0.10100001096725464,
				0.014999985694885254
			]
		},
		{
			"name":"mHandIndex3Left",
			"translation":[
				0.014000000432133675,
				0.03200000524520874,
				-0.006000041961669922
			]
		},
		{
			"children":[
				54
			],
			"name":"mHandIndex2Left",
			"translation":[
				0.016999999061226845,
				0.03600001335144043,
				-0.005999922752380371
			]
		},
		{
			"children":[
				55
			],
			"name":"mHandIndex1Left",
			"translation":[
				0.03799999877810478,
				0.09700000286102295,
				0.014999985694885254
			]
		},
		{
			"name":"mHandRing3Left",
			"translation":[
				-0.0130000039935112,
				0.04000002145767212,
				-0.009000062942504883
			]
		},
		{
			"children":[
				57
			],
			"name":"mHandRing2Left",
			"translation":[
				-0.012999996542930603,
				0.03799998760223389,
				-0.008000016212463379
			]
		},
		{
			"children":[
				58
			],
			"name":"mHandRing1Left",
			"translation":[
				-0.010000001639127731,
				0.09900003671646118,
				0.009000062942504883
			]
		},
		{
			"name":"mHandPinky3Left",
			"translation":[
				-0.015000000596046448,
				0.018000006675720215,
				-0.004000067710876465
			]
		},
		{
			"children":[
				60
			],
			"name":"mHandPinky2Left",
			"translation":[
				-0.023999996483325958,
				0.02499997615814209,
				-0.005999922752380371
			]
		},
		{
			"children":[
				61
			],
			"name":"mHandPinky1Left",
			"translation":[
				-0.03099999949336052,
				0.09500002861022949,
				0.003000020980834961
			]
		},
		{
			"name":"mHandThumb3Left",
			"translation":[
				0.022999998182058334,
				0.03100001811981201,
				-0.0009999275207519531
			]
		},
		{
			"children":[
				63
			],
			"name":"mHandThumb2Left",
			"translation":[
				0.02800000086426735,
				0.03200000524520874,
				-0.001000046730041504
			]
		},
		{
			"children":[
				64
			],
			"name":"mHandThumb1Left",
			"translation":[
				0.03099999949336052,
				0.026000022888183594,
				0.004000067710876465
			]
		},
		{
			"children":[
				53,
				56,
				59,
				62,
				65
			],
			"name":"mWristLeft",
			"translation":[
				0,
				0.2049458622932434,
				0
			]
		},
		{
			"children":[
				66
			],
			"name":"mElbowLeft",
			"translation":[
				0,
				0.2474662810564041,
				1.1920928955078125e-07
			]
		},
		{
			"children":[
				67
			],
			"name":"mShoulderLeft",
			"translation":[
				0,
				0.07906382530927658,
				-1.1920928955078125e-07
			]
		},
		{
			"children":[
				68
			],
			"name":"mCollarLeft",
			"translation":[
				-0.020935505628585815,
				0.0847420021891594,
				0.16487371921539307
			]
		},
		{
			"name":"mHandMiddle3Right",
			"translation":[
				-0.000999998301267624,
				-0.04899996519088745,
				-0.008000016212463379
			]
		},
		{
			"children":[
				70
			],
			"name":"mHandMiddle2Right",
			"translation":[
				-0.0010000001639127731,
				-0.04000002145767212,
				-0.005999922752380371
			]
		},
		{
			"children":[
				71
			],
			"name":"mHandMiddle1Right",
			"translation":[
				0.012999998405575752,
				-0.10100001096725464,
				0.014999985694885254
			]
		},
		{
			"name":"mHandIndex3Right",
			"translation":[
				0.014000000432133675,
				-0.03200000524520874,
				-0.006000041961669922
			]
		},
		{
			"children":[
				73
			],
			"name":"mHandIndex2Right",
			"translation":[
				0.016999999061226845,
				-0.03600001335144043,
				-0.005999922752380371
			]
		},
		{
			"children":[
				74
			],
			"name":"mHandIndex1Right",
			"translation":[
				0.03799999877810478,
				-0.09700000286102295,
				0.014999985694885254
			]
		},
		{
			"name":"mHandRing3Right",
			"translation":[
				-0.0130000039935112,
				-0.039999961853027344,
				-0.009000062942504883
			]
		},
		{
			"children":[
				76
			],
			"name":"mHandRing2Right",
			"translation":[
				-0.012999996542930603,
				-0.03799998760223389,
				-0.008000016212463379
			]
		},
		{
			"children":[
				77
			],
			"name":"mHandRing1Right",
			"translation":[
				-0.010000001639127731,
				-0.09900003671646118,
				0.009000062942504883
			]
		},
		{
			"name":"mHandPinky3Right",
			"translation":[
				-0.015000000596046448,
				-0.018000006675720215,
				-0.004000067710876465
			]
		},
		{
			"children":[
				79
			],
			"name":"mHandPinky2Right",
			"translation":[
				-0.023999996483325958,
				-0.02499997615814209,
				-0.005999922752380371
			]
		},
		{
			"children":[
				80
			],
			"name":"mHandPinky1Right",
			"translation":[
				-0.03099999949336052,
				-0.09500002861022949,
				0.003000020980834961
			]
		},
		{
			"name":"mHandThumb3Right",
			"translation":[
				0.022999998182058334,
				-0.030999958515167236,
				-0.0009999275207519531
			]
		},
		{
			"children":[
				82
			],
			"name":"mHandThumb2Right",
			"translation":[
				0.02800000086426735,
				-0.03200000524520874,
				-0.001000046730041504
			]
		},
		{
			"children":[
				83
			],
			"name":"mHandThumb1Right",
			"translation":[
				0.03099999949336052,
				-0.026000022888183594,
				0.004000067710876465
			]
		},
		{
			"children":[
				72,
				75,
				78,
				81,
				84
			],
			"name":"mWristRight",
			"translation":[
				0,
				-0.20510050654411316,
				0
			]
		},
		{
			"children":[
				85
			],
			"name":"mElbowRight",
			"translation":[
				0,
				-0.2474662810564041,
				1.1920928955078125e-07
			]
		},
		{
			"children":[
				86
			],
			"name":"mShoulderRight",
			"translation":[
				0,
				-0.07948219776153564,
				-1.1920928955078125e-07
			]
		},
		{
			"children":[
				87
			],
			"name":"mCollarRight",
			"translation":[
				-0.020935505628585815,
				-0.08507700264453888,
				0.16487371921539307
			]
		},
		{
			"name":"mWing4Left",
			"translation":[
				-0.17099997401237488,
				0.1730000078678131,
				0
			]
		},
		{
			"name":"mWing4FanLeft",
			"translation":[
				-0.17099997401237488,
				0.1730000078678131,
				0
			]
		},
		{
			"children":[
				89,
				90
			],
			"name":"mWing3Left",
			"translation":[
				-0.1810000240802765,
				0.18299999833106995,
				0
			]
		},
		{
			"children":[
				91
			],
			"name":"mWing2Left",
			"translation":[
				-0.1679999828338623,
				0.16899999976158142,
				0.06699991226196289
			]
		},
		{
			"children":[
				92
			],
			"name":"mWing1Left",
			"translation":[
				-0.0990450531244278,
				0.10507199913263321,
				0.18099379539489746
			]
		},
		{
			"name":"mWing4Right",
			"translation":[
				-0.17099997401237488,
				-0.1730000078678131,
				0
			]
		},
		{
			"name":"mWing4FanRight",
			"translation":[
				-0.17099997401237488,
				-0.1730000078678131,
				0
			]
		},
		{
			"children":[
				94,
				95
			],
			"name":"mWing3Right",
			"translation":[
				-0.1810000240802765,
				-0.18299999833106995,
				0
			]
		},
		{
			"children":[
				96
			],
			"name":"mWing2Right",
			"translation":[
				-0.1679999828338623,
				-0.16899999976158142,
				0.06699991226196289
			]
		},
		{
			"children":[
				97
			],
			"name":"mWing1Right",
			"translation":[
				-0.0990450531244278,
				-0.10507199913263321,
				0.18099379539489746
			]
		},
		{
			"children":[
				93,
				98
			],
			"name":"mWingsRoot",
			"translation":[
				-0.014000448398292065,
				0,
				0
			]
		},
		{
			"children":[
				50,
				69,
				88,
				99
			],
			"name":"mChest",
			"translation":[
				-0.015374493785202503,
				0,
				0.20485985279083252
			]
		},
		{
			"children":[
				100
			],
			"name":"mSpine4",
			"translation":[
				0.015000000596046448,
				0,
				-0.20498156547546387
			]
		},
		{
			"children":[
				101
			],
			"name":"mSpine3",
			"translation":[
				-0.015000000596046448,
				0,
				0.20498156547546387
			]
		},
		{
			"children":[
				102
			],
			"name":"mTorso",
			"translation":[
				0,
				0,
				0.0841604471206665
			]
		},
		{
			"children":[
				103
			],
			"name":"mSpine2",
			"translation":[
				0,
				0,
				-0.08415412902832031
			]
		},
		{
			"children":[
				104
			],
			"name":"mSpine1",
			"translation":[
				0,
				0,
				0.08415412902832031
			]
		},
		{
			"name":"mToeRight",
			"translation":[
				0.10899999737739563,
				0,
				0
			]
		},
		{
			"children":[
				106
			],
			"name":"mFootRight",
			"translation":[
				0.11195600032806396,
				0,
				-0.06063700094819069
			]
		},
		{
			"children":[
				107
			],
			"name":"mAnkleRight",
			"translation":[
				-0.02888299897313118,
				-7.450580596923828e-09,
				-0.46864157915115356
			]
		},
		{
			"children":[
				108
			],
			"name":"mKneeRight",
			"translation":[
				-0.000780005007982254,
				0.048661008477211,
				-0.49083054065704346
			]
		},
		{
			"children":[
				109
			],
			"name":"mHipRight",
			"translation":[
				0.03363300487399101,
				-0.12885800004005432,
				-0.041130781173706055
			]
		},
		{
			"name":"mToeLeft",
			"translation":[
				0.10900000482797623,
				0,
				0
			]
		},
		{
			"children":[
				111
			],
			"name":"mFootLeft",
			"translation":[
				0.11195600032806396,
				0,
				-0.06061999872326851
			]
		},
		{
			"children":[
				112
			],
			"name":"mAnkleLeft",
			"translation":[
				-0.02890099585056305,
				0.0013789981603622437,
				-0.46859654784202576
			]
		},
		{
			"children":[
				113
			],
			"name":"mKneeLeft",
			"translation":[
				-0.0008870065212249756,
				-0.04559200257062912,
				-0.49095356464385986
			]
		},
		{
			"children":[
				114
			],
			"name":"mHipLeft",
			"translation":[
				0.03377000242471695,
				0.1268160045146942,
				-0.04105079174041748
			]
		},
		{
			"name":"mTail6",
			"translation":[
				-0.09401899576187134,
				0,
				0
			]
		},
		{
			"children":[
				116
			],
			"name":"mTail5",
			"translation":[
				-0.11202198266983032,
				0,
				0
			]
		},
		{
			"children":[
				117
			],
			"name":"mTail4",
			"translation":[
				-0.1420290172100067,
				0,
				0
			]
		},
		{
			"children":[
				118
			],
			"name":"mTail3",
			"translation":[
				-0.16803300380706787,
				0,
				0
			]
		},
		{
			"children":[
				119
			],
			"name":"mTail2",
			"translation":[
				-0.19704000651836395,
				0,
				0
			]
		},
		{
			"children":[
				120
			],
			"name":"mTail1",
			"translation":[
				-0.1160459965467453,
				0,
				0.04704403877258301
			]
		},
		{
			"name":"mGroin",
			"translation":[
				0.06399999558925629,
				0,
				-0.09709697961807251
			]
		},
		{
			"name":"mHindLimb4Left",
			"translation":[
				0.1119999885559082,
				0,
				-0.06106099858880043
			]
		},
		{
			"children":[
				123
			],
			"name":"mHindLimb3Left",
			"translation":[
				-0.030000001192092896,
				-0.00299999862909317,
				-0.46846798062324524
			]
		},
		{
			"children":[
				124
			],
			"name":"mHindLimb2Left",
			"translation":[
				0.0020000040531158447,
				-0.046000003814697266,
				-0.4914909601211548
			]
		},
		{
			"children":[
				125
			],
			"name":"mHindLimb1Left",
			"translation":[
				-0.20399999618530273,
				0.1289999932050705,
				-0.12512505054473877
			]
		},
		{
			"name":"mHindLimb4Right",
			"translation":[
				0.1119999885559082,
				0,
				-0.06106099858880043
			]
		},
		{
			"children":[
				127
			],
			"name":"mHindLimb3Right",
			"translation":[
				-0.030000001192092896,
				0.00299999862909317,
				-0.46846798062324524
			]
		},
		{
			"children":[
				128
			],
			"name":"mHindLimb2Right",
			"translation":[
				0.0020000040531158447,
				0.046000003814697266,
				-0.4914909601211548
			]
		},
		{
			"children":[
				129
			],
			"name":"mHindLimb1Right",
			"translation":[
				-0.20399999618530273,
				-0.1289999932050705,
				-0.12512505054473877
			]
		},
		{
			"children":[
				126,
				130
			],
			"name":"mHindLimbsRoot",
			"translation":[
				-0.19999998807907104,
				0,
				0.08408403396606445
			]
		},
		{
			"children":[
				105,
				110,
				115,
				121,
				122,
				131
			],
			"name":"mPelvis",
			"rotation":[
				-0.7071067690849304,
				0,
				0,
				0.7071067690849304
			],
			"translation":[
				0,
				1.0671159029006958,
				0
			]
		},
		{
			"mesh":0,
			"name":"bentoHead",
			"skin":0
		},
		{
			"mesh":1,
			"name":"bentoUpperBody",
			"skin":0
		},
		{
			"mesh":2,
			"name":"eyeBallLeftMesh",
			"skin":0
		},
		{
			"mesh":3,
			"name":"eyeBallRightMesh",
			"skin":0
		},
		{
			"children":[
				133,
				134,
				135,
				136,
				132
			],
			"name":"Avatar"
		}
	],
	"materials":[
		{
			"doubleSided":true,
			"name":"avastar:mat:f:head",
			"pbrMetallicRoughness":{
				"baseColorFactor":[
					0.6399999856948853,
					0.6399999856948853,
					0.6399999856948853,
					1
				],
				"metallicFactor":0,
				"roughnessFactor":0.5
			}
		},
		{
			"doubleSided":true,
			"name":"avastar:mat:f:upperBody",
			"pbrMetallicRoughness":{
				"baseColorFactor":[
					0.800000011920929,
					0.800000011920929,
					0.800000011920929,
					1
				],
				"metallicFactor":0,
				"roughnessFactor":0.5
			}
		},
		{
			"doubleSided":true,
			"name":"avastar:mat:f:lowerBody",
			"pbrMetallicRoughness":{
				"baseColorFactor":[
					0.800000011920929,
					0.800000011920929,
					0.800000011920929,
					1
				],
				"metallicFactor":0,
				"roughnessFactor":0.5
			}
		},
		{
			"doubleSided":true,
			"name":"Wings",
			"pbrMetallicRoughness":{
				"baseColorFactor":[
					0.800000011920929,
					0.800000011920929,
					0.800000011920929,
					1
				],
				"metallicFactor":0,
				"roughnessFactor":0.5
			}
		},
		{
			"doubleSided":true,
			"name":"Feet",
			"pbrMetallicRoughness":{
				"baseColorFactor":[
					0.800000011920929,
					0.800000011920929,
					0.800000011920929,
					1
				],
				"metallicFactor":0,
				"roughnessFactor":0.5
			}
		},
		{
			"doubleSided":true,
			"extensions":{
				"KHR_materials_specular":{
					"specularFactor":0
				},
				"KHR_materials_ior":{
					"ior":1
				}
			},
			"name":"Tail",
			"pbrMetallicRoughness":{
				"baseColorFactor":[
					0.800000011920929,
					0.800000011920929,
					0.800000011920929,
					1
				],
				"metallicFactor":0,
				"roughnessFactor":0.5
			}
		},
		{
			"doubleSided":true,
			"name":"avastar:mat:f:eyeBalls",
			"pbrMetallicRoughness":{
				"baseColorFactor":[
					0.6399999856948853,
					0.6399999856948853,
					0.6399999856948853,
					1
				],
				"metallicFactor":0,
				"roughnessFactor":0.5
			}
		}
	],
	"meshes":[
		{
			"name":"bentoHead",
			"primitives":[
				{
					"attributes":{
						"POSITION":0,
						"NORMAL":1,
						"TEXCOORD_0":2,
						"JOINTS_0":3,
						"WEIGHTS_0":4
					},
					"indices":5,
					"material":0
				}
			]
		},
		{
			"name":"bentoUpperBody",
			"primitives":[
				{
					"attributes":{
						"POSITION":7,
						"NORMAL":8,
						"TEXCOORD_0":9,
						"JOINTS_0":10,
						"WEIGHTS_0":11
					},
					"indices":12,
					"material":1
				},
				{
					"attributes":{
						"POSITION":13,
						"NORMAL":14,
						"TEXCOORD_0":15,
						"JOINTS_0":16,
						"WEIGHTS_0":17
					},
					"indices":18,
					"material":2
				},
				{
					"attributes":{
						"POSITION":19,
						"NORMAL":20,
						"TEXCOORD_0":21,
						"JOINTS_0":22,
						"WEIGHTS_0":23
					},
					"indices":24,
					"material":3
				},
				{
					"attributes":{
						"POSITION":25,
						"NORMAL":26,
						"TEXCOORD_0":27,
						"JOINTS_0":28,
						"WEIGHTS_0":29
					},
					"indices":30,
					"material":4
				},
				{
					"attributes":{
						"POSITION":31,
						"NORMAL":32,
						"TEXCOORD_0":33,
						"JOINTS_0":34,
						"WEIGHTS_0":35
					},
					"indices":36,
					"material":5
				}
			]
		},
		{
			"name":"eyeBallLeftMesh",
			"primitives":[
				{
					"attributes":{
						"POSITION":37,
						"NORMAL":38,
						"TEXCOORD_0":39,
						"JOINTS_0":40,
						"WEIGHTS_0":41
					},
					"indices":42,
					"material":6
				}
			]
		},
		{
			"name":"eyeBallRightMesh",
			"primitives":[
				{
					"attributes":{
						"POSITION":43,
						"NORMAL":44,
						"TEXCOORD_0":45,
						"JOINTS_0":46,
						"WEIGHTS_0":47
					},
					"indices":42,
					"material":6
				}
			]
		}
	],
	"skins":[
		{
			"inverseBindMatrices":6,
			"joints":[
				132,
				105,
				104,
				103,
				102,
				101,
				100,
				50,
				49,
				0,
				1,
				2,
				48,
				3,
				4,
				5,
				6,
				7,
				8,
				9,
				10,
				11,
				12,
				13,
				14,
				15,
				16,
				18,
				17,
				20,
				19,
				21,
				22,
				23,
				24,
				25,
				26,
				27,
				35,
				28,
				34,
				29,
				30,
				31,
				33,
				32,
				36,
				37,
				38,
				44,
				39,
				40,
				41,
				42,
				43,
				45,
				46,
				47,
				69,
				68,
				67,
				66,
				53,
				52,
				51,
				56,
				55,
				54,
				59,
				58,
				57,
				62,
				61,
				60,
				65,
				64,
				63,
				88,
				87,
				86,
				85,
				72,
				71,
				70,
				75,
				74,
				73,
				78,
				77,
				76,
				81,
				80,
				79,
				84,
				83,
				82,
				99,
				93,
				92,
				91,
				89,
				90,
				98,
				97,
				96,
				94,
				95,
				110,
				109,
				108,
				107,
				106,
				115,
				114,
				113,
				112,
				111,
				121,
				120,
				119,
				118,
				117,
				116,
				122,
				131,
				126,
				125,
				124,
				123,
				130,
				129,
				128,
				127
			],
			"name":"Avatar"
		}
	],
	"accessors":[
		{
			"bufferView":0,
			"componentType":5126,
			"count":1063,
			"max":[
				0.12580899894237518,
				1.8729299306869507,
				0.0971279963850975
			],
			"min":[
				-0.1130639985203743,
				1.6228299140930176,
				-0.0971279963850975
			],
			"type":"VEC3"
		},
		{
			"bufferView":1,
			"componentType":5126,
			"count":1063,
			"type":"VEC3"
		},
		{
			"bufferView":2,
			"componentType":5126,
			"count":1063,
			"type":"VEC2"
		},
		{
			"bufferView":3,
			"componentType":5121,
			"count":1063,
			"type":"VEC4"
		},
		{
			"bufferView":4,
			"componentType":5126,
			"count":1063,
			"type":"VEC4"
		},
		{
			"bufferView":5,
			"componentType":5123,
			"count":5532,
			"type":"SCALAR"
		},
		{
			"bufferView":6,
			"componentType":5126,
			"count":133,
			"type":"MAT4"
		},
		{
			"bufferView":7,
			"componentType":5126,
			"count":2205,
			"max":[
				0.15047000348567963,
				1.6304799318313599,
				0.8395320177078247
			],
			"min":[
				-0.12263605743646622,
				1.1376899480819702,
				-0.8395320177078247
			],
			"type":"VEC3"
		},
		{
			"bufferView":8,
			"componentType":5126,
			"count":2205,
			"type":"VEC3"
		},
		{
			"bufferView":9,
			"componentType":5126,
			"count":2205,
			"type":"VEC2"
		},
		{
			"bufferView":10,
			"componentType":5121,
			"count":2205,
			"type":"VEC4"
		},
		{
			"bufferView":11,
			"componentType":5126,
			"count":2205,
			"type":"VEC4"
		},
		{
			"bufferView":12,
			"componentType":5123,
			"count":10974,
			"type":"SCALAR"
		},
		{
			"bufferView":13,
			"componentType":5126,
			"count":697,
			"max":[
				0.109375,
				1.144670009613037,
				0.17455199360847473
			],
			"min":[
				-0.14363999664783478,
				0.13911700248718262,
				-0.17455199360847473
			],
			"type":"VEC3"
		},
		{
			"bufferView":14,
			"componentType":5126,
			"count":697,
			"type":"VEC3"
		},
		{
			"bufferView":15,
			"componentType":5126,
			"count":697,
			"type":"VEC2"
		},
		{
			"bufferView":16,
			"componentType":5121,
			"count":697,
			"type":"VEC4"
		},
		{
			"bufferView":17,
			"componentType":5126,
			"count":697,
			"type":"VEC4"
		},
		{
			"bufferView":18,
			"componentType":5123,
			"count":3540,
			"type":"SCALAR"
		},
		{
			"bufferView":19,
			"componentType":5126,
			"count":380,
			"max":[
				-0.059565991163253784,
				1.6240400075912476,
				1.4197998046875
			],
			"min":[
				-1.434130072593689,
				1.0866199731826782,
				-1.419800043106079
			],
			"type":"VEC3"
		},
		{
			"bufferView":20,
			"componentType":5126,
			"count":380,
			"type":"VEC3"
		},
		{
			"bufferView":21,
			"componentType":5126,
			"count":380,
			"type":"VEC2"
		},
		{
			"bufferView":22,
			"componentType":5121,
			"count":380,
			"type":"VEC4"
		},
		{
			"bufferView":23,
			"componentType":5126,
			"count":380,
			"type":"VEC4"
		},
		{
			"bufferView":24,
			"componentType":5123,
			"count":1746,
			"type":"SCALAR"
		},
		{
			"bufferView":25,
			"componentType":5126,
			"count":2562,
			"max":[
				0.21092799305915833,
				0.14981499314308167,
				0.13623401522636414
			],
			"min":[
				-0.04347400739789009,
				-0.009418999776244164,
				-0.13623398542404175
			],
			"type":"VEC3"
		},
		{
			"bufferView":26,
			"componentType":5126,
			"count":2562,
			"type":"VEC3"
		},
		{
			"bufferView":27,
			"componentType":5126,
			"count":2562,
			"type":"VEC2"
		},
		{
			"bufferView":28,
			"componentType":5121,
			"count":2562,
			"type":"VEC4"
		},
		{
			"bufferView":29,
			"componentType":5126,
			"count":2562,
			"type":"VEC4"
		},
		{
			"bufferView":30,
			"componentType":5123,
			"count":12684,
			"type":"SCALAR"
		},
		{
			"bufferView":31,
			"componentType":5126,
			"count":204,
			"max":[
				-0.06683500111103058,
				1.1551300287246704,
				0.04139699041843414
			],
			"min":[
				-0.971867024898529,
				1.083150029182434,
				-0.041397012770175934
			],
			"type":"VEC3"
		},
		{
			"bufferView":32,
			"componentType":5126,
			"count":204,
			"type":"VEC3"
		},
		{
			"bufferView":33,
			"componentType":5126,
			"count":204,
			"type":"VEC2"
		},
		{
			"bufferView":34,
			"componentType":5121,
			"count":204,
			"type":"VEC4"
		},
		{
			"bufferView":35,
			"componentType":5126,
			"count":204,
			"type":"VEC4"
		},
		{
			"bufferView":36,
			"componentType":5123,
			"count":1044,
			"type":"SCALAR"
		},
		{
			"bufferView":37,
			"componentType":5126,
			"count":145,
			"max":[
				0.09350500255823135,
				1.7831299304962158,
				-0.015086994506418705
			],
			"min":[
				0.07357999682426453,
				1.7408599853515625,
				-0.05736399441957474
			],
			"type":"VEC3"
		},
		{
			"bufferView":38,
			"componentType":5126,
			"count":145,
			"type":"VEC3"
		},
		{
			"bufferView":39,
			"componentType":5126,
			"count":145,
			"type":"VEC2"
		},
		{
			"bufferView":40,
			"componentType":5121,
			"count":145,
			"type":"VEC4"
		},
		{
			"bufferView":41,
			"componentType":5126,
			"count":145,
			"type":"VEC4"
		},
		{
			"bufferView":42,
			"componentType":5123,
			"count":816,
			"type":"SCALAR"
		},
		{
			"bufferView":43,
			"componentType":5126,
			"count":145,
			"max":[
				0.09350500255823135,
				1.7831299304962158,
				0.057364001870155334
			],
			"min":[
				0.07358099520206451,
				1.7408599853515625,
				0.0150870056822896
			],
			"type":"VEC3"
		},
		{
			"bufferView":44,
			"componentType":5126,
			"count":145,
			"type":"VEC3"
		},
		{
			"bufferView":45,
			"componentType":5126,
			"count":145,
			"type":"VEC2"
		},
		{
			"bufferView":46,
			"componentType":5121,
			"count":145,
			"type":"VEC4"
		},
		{
			"bufferView":47,
			"componentType":5126,
			"count":145,
			"type":"VEC4"
		}
	],
	"bufferViews":[
		{
			"buffer":0,
			"byteLength":12756,
			"byteOffset":0,
			"target":34962
		},
		{
			"buffer":0,
			"byteLength":12756,
			"byteOffset":12756,
			"target":34962
		},
		{
			"buffer":0,
			"byteLength":8504,
			"byteOffset":25512,
			"target":34962
		},
		{
			"buffer":0,
			"byteLength":4252,
			"byteOffset":34016,
			"target":34962
		},
		{
			"buffer":0,
			"byteLength":17008,
			"byteOffset":38268,
			"target":34962
		},
		{
			"buffer":0,
			"byteLength":11064,
			"byteOffset":55276,
			"target":34963
		},
		{
			"buffer":0,
			"byteLength":8512,
			"byteOffset":66340
		},
		{
			"buffer":0,
			"byteLength":26460,
			"byteOffset":74852,
			"target":34962
		},
		{
			"buffer":0,
			"byteLength":26460,
			"byteOffset":101312,
			"target":34962
		},
		{
			"buffer":0,
			"byteLength":17640,
			"byteOffset":127772,
			"target":34962
		},
		{
			"buffer":0,
			"byteLength":8820,
			"byteOffset":145412,
			"target":34962
		},
		{
			"buffer":0,
			"byteLength":35280,
			"byteOffset":154232,
			"target":34962
		},
		{
			"buffer":0,
			"byteLength":21948,
			"byteOffset":189512,
			"target":34963
		},
		{
			"buffer":0,
			"byteLength":8364,
			"byteOffset":211460,
			"target":34962
		},
		{
			"buffer":0,
			"byteLength":8364,
			"byteOffset":219824,
			"target":34962
		},
		{
			"buffer":0,
			"byteLength":5576,
			"byteOffset":228188,
			"target":34962
		},
		{
			"buffer":0,
			"byteLength":2788,
			"byteOffset":233764,
			"target":34962
		},
		{
			"buffer":0,
			"byteLength":11152,
			"byteOffset":236552,
			"target":34962
		},
		{
			"buffer":0,
			"byteLength":7080,
			"byteOffset":247704,
			"target":34963
		},
		{
			"buffer":0,
			"byteLength":4560,
			"byteOffset":254784,
			"target":34962
		},
		{
			"buffer":0,
			"byteLength":4560,
			"byteOffset":259344,
			"target":34962
		},
		{
			"buffer":0,
			"byteLength":3040,
			"byteOffset":263904,
			"target":34962
		},
		{
			"buffer":0,
			"byteLength":1520,
			"byteOffset":266944,
			"target":34962
		},
		{
			"buffer":0,
			"byteLength":6080,
			"byteOffset":268464,
			"target":34962
		},
		{
			"buffer":0,
			"byteLength":3492,
			"byteOffset":274544,
			"target":34963
		},
		{
			"buffer":0,
			"byteLength":30744,
			"byteOffset":278036,
			"target":34962
		},
		{
			"buffer":0,
			"byteLength":30744,
			"byteOffset":308780,
			"target":34962
		},
		{
			"buffer":0,
			"byteLength":20496,
			"byteOffset":339524,
			"target":34962
		},
		{
			"buffer":0,
			"byteLength":10248,
			"byteOffset":360020,
			"target":34962
		},
		{
			"buffer":0,
			"byteLength":40992,
			"byteOffset":370268,
			"target":34962
		},
		{
			"buffer":0,
			"byteLength":25368,
			"byteOffset":411260,
			"target":34963
		},
		{
			"buffer":0,
			"byteLength":2448,
			"byteOffset":436628,
			"target":34962
		},
		{
			"buffer":0,
			"byteLength":2448,
			"byteOffset":439076,
			"target":34962
		},
		{
			"buffer":0,
			"byteLength":1632,
			"byteOffset":441524,
			"target":34962
		},
		{
			"buffer":0,
			"byteLength":816,
			"byteOffset":443156,
			"target":34962
		},
		{
			"buffer":0,
			"byteLength":3264,
			"byteOffset":443972,
			"target":34962
		},
		{
			"buffer":0,
			"byteLength":2088,
			"byteOffset":447236,
			"target":34963
		},
		{
			"buffer":0,
			"byteLength":1740,
			"byteOffset":449324,
			"target":34962
		},
		{
			"buffer":0,
			"byteLength":1740,
			"byteOffset":451064,
			"target":34962
		},
		{
			"buffer":0,
			"byteLength":1160,
			"byteOffset":452804,
			"target":34962
		},
		{
			"buffer":0,
			"byteLength":580,
			"byteOffset":453964,
			"target":34962
		},
		{
			"buffer":0,
			"byteLength":2320,
			"byteOffset":454544,
			"target":34962
		},
		{
			"buffer":0,
			"byteLength":1632,
			"byteOffset":456864,
			"target":34963
		},
		{
			"buffer":0,
			"byteLength":1740,
			"byteOffset":458496,
			"target":34962
		},
		{
			"buffer":0,
			"byteLength":1740,
			"byteOffset":460236,
			"target":34962
		},
		{
			"buffer":0,
			"byteLength":1160,
			"byteOffset":461976,
			"target":34962
		},
		{
			"buffer":0,
			"byteLength":580,
			"byteOffset":463136,
			"target":34962
		},
		{
			"buffer":0,
			"byteLength":2320,
			"byteOffset":463716,
			"target":34962
		}
	],
	"buffers":[
		{
			"byteLength":466036,
			"uri":"angel_2016_08_05.bin"
		}
	]
}
