{
	"asset":{
		"generator":"Khronos glTF Blender I/O v5.0.21",
		"version":"2.0"
	},
	"scene":0,
	"scenes":[
		{
			"name":"Scene",
			"nodes":[
				164
			]
		}
	],
	"nodes":[
		{
			"name":"PELVIS",
			"translation":[
				-0.009999999776482582,
				0,
				-0.019999980926513672
			]
		},
		{
			"name":"BUTT",
			"translation":[
				-0.05999999865889549,
				0,
				-0.10000002384185791
			]
		},
		{
			"name":"BELLY",
			"translation":[
				0.02800000086426735,
				0,
				0.039999961853027344
			]
		},
		{
			"name":"LEFT_HANDLE",
			"translation":[
				0,
				0.10000000149011612,
				0.05799996852874756
			]
		},
		{
			"name":"RIGHT_HANDLE",
			"translation":[
				0,
				-0.10000000149011612,
				0.05799996852874756
			]
		},
		{
			"name":"LOWER_BACK",
			"translation":[
				0,
				0,
				0.023000001907348633
			]
		},
		{
			"name":"CHEST",
			"translation":[
				0.027720030397176743,
				0,
				0.0700000524520874
			]
		},
		{
			"name":"LEFT_PEC",
			"translation":[
				0.11781012266874313,
				0.07871975749731064,
				0.04200005531311035
			]
		},
		{
			"name":"RIGHT_PEC",
			"translation":[
				0.11781012266874313,
				-0.07871975749731064,
				0.04200005531311035
			]
		},
		{
			"name":"UPPER_BACK",
			"translation":[
				0,
				0,
				0.01699995994567871
			]
		},
		{
			"name":"NECK",
			"translation":[
				0,
				0,
				0.019999980926513672
			]
		},
		{
			"name":"HEAD",
			"translation":[
				0.01850001886487007,
				0,
				0.064750075340271
			]
		},
		{
			"name":"mSkull",
			"translation":[
				0,
				0,
				0.0730750560760498
			]
		},
		{
			"name":"mEyeRight",
			"translation":[
				0.09108114242553711,
				-0.03607504069805145,
				0.0730750560760498
			]
		},
		{
			"name":"mEyeLeft",
			"translation":[
				0.09107652306556702,
				0.03607504069805145,
				0.0730750560760498
			]
		},
		{
			"name":"mFaceEyeAltRight",
			"translation":[
				0.06752507388591766,
				-0.034056078642606735,
				0.03073585033416748
			]
		},
		{
			"name":"mFaceEyeAltLeft",
			"translation":[
				0.06752507388591766,
				0.034056078642606735,
				0.03073585033416748
			]
		},
		{
			"name":"mFaceForeheadLeft",
			"translation":[
				0.05920005962252617,
				0.03311040997505188,
				0.07774531841278076
			]
		},
		{
			"name":"mFaceForeheadRight",
			"translation":[
				0.05920005962252617,
				-0.03311040997505188,
				0.07774531841278076
			]
		},
		{
			"name":"mFaceEyebrowOuterLeft",
			"translation":[
				0.05920005962252617,
				0.04868742823600769,
				0.04302191734313965
			]
		},
		{
			"name":"mFaceEyebrowCenterLeft",
			"translation":[
				0.0647500678896904,
				0.04244644567370415,
				0.0504680871963501
			]
		},
		{
			"name":"mFaceEyebrowInnerLeft",
			"translation":[
				0.06937507539987564,
				0.02301125042140484,
				0.04584312438964844
			]
		},
		{
			"name":"mFaceEyebrowOuterRight",
			"translation":[
				0.05920005962252617,
				-0.04868742823600769,
				0.04302191734313965
			]
		},
		{
			"name":"mFaceEyebrowCenterRight",
			"translation":[
				0.0647500678896904,
				-0.04244644567370415,
				0.0504680871963501
			]
		},
		{
			"name":"mFaceEyebrowInnerRight",
			"translation":[
				0.06937507539987564,
				-0.02301125042140484,
				0.04584312438964844
			]
		},
		{
			"name":"mFaceEyeLidUpperLeft",
			"translation":[
				0.06752507388591766,
				0.035957563668489456,
				0.030201435089111328
			]
		},
		{
			"name":"mFaceEyeLidLowerLeft",
			"translation":[
				0.06752507388591766,
				0.035957563668489456,
				0.030062556266784668
			]
		},
		{
			"name":"mFaceEyeLidUpperRight",
			"translation":[
				0.06752507388591766,
				-0.035957563668489456,
				0.030201435089111328
			]
		},
		{
			"name":"mFaceEyeLidLowerRight",
			"translation":[
				0.06752507388591766,
				-0.035957563668489456,
				0.030062556266784668
			]
		},
		{
			"name":"mFaceEar2Left",
			"translation":[
				-0.01900000125169754,
				0.017999999225139618,
				0.02499997615814209
			]
		},
		{
			"children":[
				29
			],
			"name":"mFaceEar1Left",
			"translation":[
				-1.7345882952213287e-07,
				0.07567999511957169,
				0.0018105506896972656
			]
		},
		{
			"name":"mFaceEar2Right",
			"translation":[
				-0.01900000125169754,
				-0.017999999225139618,
				0.02499997615814209
			]
		},
		{
			"children":[
				31
			],
			"name":"mFaceEar1Right",
			"translation":[
				-1.7345882952213287e-07,
				-0.07567999511957169,
				0.0018105506896972656
			]
		},
		{
			"name":"mFaceNoseLeft",
			"translation":[
				0.07955008745193481,
				0.014190440066158772,
				-0.004967093467712402
			]
		},
		{
			"name":"mFaceNoseCenter",
			"translation":[
				0.0943496823310852,
				0,
				-0.0013560056686401367
			]
		},
		{
			"name":"mFaceNoseRight",
			"translation":[
				0.07955008745193481,
				-0.014190440066158772,
				-0.004967093467712402
			]
		},
		{
			"name":"mFaceCheekLowerLeft",
			"translation":[
				0.046250052750110626,
				0.032164134085178375,
				-0.030321478843688965
			]
		},
		{
			"name":"mFaceCheekUpperLeft",
			"translation":[
				0.0647500678896904,
				0.032164134085178375,
				-0.005864381790161133
			]
		},
		{
			"name":"mFaceCheekLowerRight",
			"translation":[
				0.046250052750110626,
				-0.032164134085178375,
				-0.030321478843688965
			]
		},
		{
			"name":"mFaceCheekUpperRight",
			"translation":[
				0.0647500678896904,
				-0.032164134085178375,
				-0.005864381790161133
			]
		},
		{
			"name":"mFaceChin",
			"translation":[
				0.06428757309913635,
				0,
				-0.05132877826690674
			]
		},
		{
			"name":"mFaceLipLowerLeft",
			"translation":[
				0.041625045239925385,
				0,
				0
			]
		},
		{
			"name":"mFaceLipLowerRight",
			"translation":[
				0.041625045239925385,
				0,
				0
			]
		},
		{
			"name":"mFaceLipLowerCenter",
			"translation":[
				0.041625045239925385,
				0,
				0
			]
		},
		{
			"name":"mFaceTongueTip",
			"translation":[
				0.02035001665353775,
				0,
				0.006475090980529785
			]
		},
		{
			"children":[
				44
			],
			"name":"mFaceTongueBase",
			"translation":[
				0.036075036972761154,
				0,
				0.00462496280670166
			]
		},
		{
			"children":[
				41,
				42,
				43,
				45
			],
			"name":"mFaceTeethLower",
			"translation":[
				0.01942501962184906,
				0,
				-0.03775906562805176
			]
		},
		{
			"children":[
				40,
				46
			],
			"name":"mFaceJaw",
			"translation":[
				-0.0009250009898096323,
				0,
				-0.013559937477111816
			]
		},
		{
			"name":"mFaceJawShaper",
			"translation":[
				-1.1641532182693481e-10,
				0,
				9.298324584960938e-06
			]
		},
		{
			"name":"mFaceForeheadCenter",
			"translation":[
				0.06410256773233414,
				0,
				0.05849719047546387
			]
		},
		{
			"name":"mFaceNoseBase",
			"translation":[
				0.08695009350776672,
				0,
				-0.01788938045501709
			]
		},
		{
			"name":"mFaceLipUpperLeft",
			"translation":[
				0.04162504896521568,
				0,
				-0.0037636756896972656
			]
		},
		{
			"name":"mFaceLipUpperRight",
			"translation":[
				0.04162504896521568,
				0,
				-0.0037636756896972656
			]
		},
		{
			"name":"mFaceLipCornerLeft",
			"translation":[
				0.02590002864599228,
				-0.017575019970536232,
				-0.009250164031982422
			]
		},
		{
			"name":"mFaceLipCornerRight",
			"translation":[
				0.02590002864599228,
				0.017575019970536232,
				-0.009250164031982422
			]
		},
		{
			"name":"mFaceLipUpperCenter",
			"translation":[
				0.041625041514635086,
				0,
				-0.002454400062561035
			]
		},
		{
			"children":[
				51,
				52,
				53,
				54,
				55
			],
			"name":"mFaceTeethUpper",
			"translation":[
				0.01850001886487007,
				0,
				-0.029146671295166016
			]
		},
		{
			"name":"mFaceEyecornerInnerLeft",
			"translation":[
				0.06937507539987564,
				0.01812261901795864,
				0.028258800506591797
			]
		},
		{
			"name":"mFaceEyecornerInnerRight",
			"translation":[
				0.06937507539987564,
				-0.01812261901795864,
				0.028258800506591797
			]
		},
		{
			"name":"mFaceNoseBridge",
			"translation":[
				0.08417509496212006,
				0,
				0.018083810806274414
			]
		},
		{
			"children":[
				15,
				16,
				17,
				18,
				19,
				20,
				21,
				22,
				23,
				24,
				25,
				26,
				27,
				28,
				30,
				32,
				33,
				34,
				35,
				36,
				37,
				38,
				39,
				47,
				48,
				49,
				50,
				56,
				57,
				58,
				59
			],
			"name":"mFaceRoot",
			"translation":[
				0.023125026375055313,
				0,
				0.043003082275390625
			]
		},
		{
			"children":[
				11,
				12,
				13,
				14,
				60
			],
			"name":"mHead",
			"translation":[
				-1.862645149230957e-07,
				0,
				0.07563638687133789
			]
		},
		{
			"children":[
				10,
				61
			],
			"name":"mNeck",
			"translation":[
				-0.009411880746483803,
				0,
				0.25109994411468506
			]
		},
		{
			"name":"L_CLAVICLE",
			"translation":[
				0.019999999552965164,
				0,
				0.019999980926513672
			]
		},
		{
			"name":"L_UPPER_ARM",
			"translation":[
				0,
				0.13440001010894775,
				0.009999990463256836
			]
		},
		{
			"name":"L_LOWER_ARM",
			"translation":[
				0,
				0.11799994111061096,
				0
			]
		},
		{
			"name":"L_HAND",
			"translation":[
				0.009999999776482582,
				0.050000011920928955,
				0
			]
		},
		{
			"name":"mHandMiddle3Left",
			"translation":[
				-0.0010000001639127731,
				0.04900002479553223,
				-0.008000016212463379
			]
		},
		{
			"children":[
				67
			],
			"name":"mHandMiddle2Left",
			"translation":[
				-0.0010000001639127731,
				0.039999961853027344,
				-0.005999922752380371
			]
		},
		{
			"children":[
				68
			],
			"name":"mHandMiddle1Left",
			"translation":[
				0.013000000268220901,
				0.10100001096725464,
				0.014999985694885254
			]
		},
		{
			"name":"mHandIndex3Left",
			"translation":[
				0.014000000432133675,
				0.03200000524520874,
				-0.006000041961669922
			]
		},
		{
			"children":[
				70
			],
			"name":"mHandIndex2Left",
			"translation":[
				0.016999999061226845,
				0.035999953746795654,
				-0.005999922752380371
			]
		},
		{
			"children":[
				71
			],
			"name":"mHandIndex1Left",
			"translation":[
				0.03799999877810478,
				0.09700000286102295,
				0.014999985694885254
			]
		},
		{
			"name":"mHandRing3Left",
			"translation":[
				-0.013000000268220901,
				0.04000002145767212,
				-0.009000062942504883
			]
		},
		{
			"children":[
				73
			],
			"name":"mHandRing2Left",
			"translation":[
				-0.013000000268220901,
				0.03799998760223389,
				-0.008000016212463379
			]
		},
		{
			"children":[
				74
			],
			"name":"mHandRing1Left",
			"translation":[
				-0.009999997913837433,
				0.0989999771118164,
				0.009000062942504883
			]
		},
		{
			"name":"mHandPinky3Left",
			"translation":[
				-0.015000000596046448,
				0.018000006675720215,
				-0.004000067710876465
			]
		},
		{
			"children":[
				76
			],
			"name":"mHandPinky2Left",
			"translation":[
				-0.024000003933906555,
				0.025000035762786865,
				-0.005999922752380371
			]
		},
		{
			"children":[
				77
			],
			"name":"mHandPinky1Left",
			"translation":[
				-0.03099999576807022,
				0.09499996900558472,
				0.003000020980834961
			]
		},
		{
			"name":"mHandThumb3Left",
			"translation":[
				0.022999998182058334,
				0.03100001811981201,
				-0.0009999275207519531
			]
		},
		{
			"children":[
				79
			],
			"name":"mHandThumb2Left",
			"translation":[
				0.02800000086426735,
				0.03200000524520874,
				-0.001000046730041504
			]
		},
		{
			"children":[
				80
			],
			"name":"mHandThumb1Left",
			"translation":[
				0.03099999949336052,
				0.02599996328353882,
				0.004000067710876465
			]
		},
		{
			"children":[
				66,
				69,
				72,
				75,
				78,
				81
			],
			"name":"mWristLeft",
			"translation":[
				0,
				0.24171927571296692,
				0
			]
		},
		{
			"children":[
				65,
				82
			],
			"name":"mElbowLeft",
			"translation":[
				-3.725290298461914e-09,
				0.2777596414089203,
				1.1920928955078125e-07
			]
		},
		{
			"children":[
				64,
				83
			],
			"name":"mShoulderLeft",
			"translation":[
				3.725290298461914e-09,
				0.07900010049343109,
				-1.1920928955078125e-07
			]
		},
		{
			"children":[
				63,
				84
			],
			"name":"mCollarLeft",
			"translation":[
				-0.02071821503341198,
				0.07167799770832062,
				0.16538989543914795
			]
		},
		{
			"name":"R_CLAVICLE",
			"translation":[
				0.019999999552965164,
				0,
				0.019999980926513672
			]
		},
		{
			"name":"R_UPPER_ARM",
			"translation":[
				0,
				-0.13440001010894775,
				0.009999990463256836
			]
		},
		{
			"name":"R_LOWER_ARM",
			"translation":[
				0,
				-0.11799997091293335,
				0
			]
		},
		{
			"name":"R_HAND",
			"translation":[
				0.009999999776482582,
				-0.050000011920928955,
				0
			]
		},
		{
			"name":"mHandMiddle3Right",
			"translation":[
				-0.0010000001639127731,
				-0.04900002479553223,
				-0.008000016212463379
			]
		},
		{
			"children":[
				90
			],
			"name":"mHandMiddle2Right",
			"translation":[
				-0.0010000001639127731,
				-0.04000002145767212,
				-0.005999922752380371
			]
		},
		{
			"children":[
				91
			],
			"name":"mHandMiddle1Right",
			"translation":[
				0.013000000268220901,
				-0.10099995136260986,
				0.014999985694885254
			]
		},
		{
			"name":"mHandIndex3Right",
			"translation":[
				0.014000000432133675,
				-0.03200000524520874,
				-0.006000041961669922
			]
		},
		{
			"children":[
				93
			],
			"name":"mHandIndex2Right",
			"translation":[
				0.016999999061226845,
				-0.03600001335144043,
				-0.005999922752380371
			]
		},
		{
			"children":[
				94
			],
			"name":"mHandIndex1Right",
			"translation":[
				0.03799999877810478,
				-0.09699994325637817,
				0.014999985694885254
			]
		},
		{
			"name":"mHandRing3Right",
			"translation":[
				-0.013000000268220901,
				-0.04000002145767212,
				-0.009000062942504883
			]
		},
		{
			"children":[
				96
			],
			"name":"mHandRing2Right",
			"translation":[
				-0.013000000268220901,
				-0.03799998760223389,
				-0.008000016212463379
			]
		},
		{
			"children":[
				97
			],
			"name":"mHandRing1Right",
			"translation":[
				-0.009999997913837433,
				-0.0989999771118164,
				0.009000062942504883
			]
		},
		{
			"name":"mHandPinky3Right",
			"translation":[
				-0.015000000596046448,
				-0.018000006675720215,
				-0.004000067710876465
			]
		},
		{
			"children":[
				99
			],
			"name":"mHandPinky2Right",
			"translation":[
				-0.024000003933906555,
				-0.02499997615814209,
				-0.005999922752380371
			]
		},
		{
			"children":[
				100
			],
			"name":"mHandPinky1Right",
			"translation":[
				-0.03099999576807022,
				-0.09499996900558472,
				0.003000020980834961
			]
		},
		{
			"name":"mHandThumb3Right",
			"translation":[
				0.022999998182058334,
				-0.03100001811981201,
				-0.0009999275207519531
			]
		},
		{
			"children":[
				102
			],
			"name":"mHandThumb2Right",
			"translation":[
				0.02800000086426735,
				-0.03200000524520874,
				-0.001000046730041504
			]
		},
		{
			"children":[
				103
			],
			"name":"mHandThumb1Right",
			"translation":[
				0.03099999949336052,
				-0.02599996328353882,
				0.004000067710876465
			]
		},
		{
			"children":[
				89,
				92,
				95,
				98,
				101,
				104
			],
			"name":"mWristRight",
			"translation":[
				0,
				-0.24190044403076172,
				0
			]
		},
		{
			"children":[
				88,
				105
			],
			"name":"mElbowRight",
			"translation":[
				-3.725290298461914e-09,
				-0.2777591645717621,
				1.1920928955078125e-07
			]
		},
		{
			"children":[
				87,
				106
			],
			"name":"mShoulderRight",
			"translation":[
				3.725290298461914e-09,
				-0.07941841334104538,
				-1.1920928955078125e-07
			]
		},
		{
			"children":[
				86,
				107
			],
			"name":"mCollarRight",
			"translation":[
				-0.02071821503341198,
				-0.07200000435113907,
				0.16538989543914795
			]
		},
		{
			"name":"mWing4Left",
			"translation":[
				-0.16929015517234802,
				0.16607952117919922,
				0
			]
		},
		{
			"name":"mWing4FanLeft",
			"translation":[
				-0.16929015517234802,
				0.16607952117919922,
				0
			]
		},
		{
			"children":[
				109,
				110
			],
			"name":"mWing3Left",
			"translation":[
				-0.17919018864631653,
				0.17567947506904602,
				0
			]
		},
		{
			"children":[
				111
			],
			"name":"mWing2Left",
			"translation":[
				-0.16632020473480225,
				0.16223952174186707,
				0.06700003147125244
			]
		},
		{
			"children":[
				112
			],
			"name":"mWing1Left",
			"translation":[
				-0.0980101153254509,
				0.10079968720674515,
				0.1809999942779541
			]
		},
		{
			"name":"mWing4Right",
			"translation":[
				-0.16929015517234802,
				-0.16607952117919922,
				0
			]
		},
		{
			"name":"mWing4FanRight",
			"translation":[
				-0.16929015517234802,
				-0.16607952117919922,
				0
			]
		},
		{
			"children":[
				114,
				115
			],
			"name":"mWing3Right",
			"translation":[
				-0.17919018864631653,
				-0.17567947506904602,
				0
			]
		},
		{
			"children":[
				116
			],
			"name":"mWing2Right",
			"translation":[
				-0.16632020473480225,
				-0.16223952174186707,
				0.06700003147125244
			]
		},
		{
			"children":[
				117
			],
			"name":"mWing1Right",
			"translation":[
				-0.0980101153254509,
				-0.10079968720674515,
				0.1809999942779541
			]
		},
		{
			"children":[
				113,
				118
			],
			"name":"mWingsRoot",
			"translation":[
				-0.013860015198588371,
				0,
				0
			]
		},
		{
			"children":[
				6,
				7,
				8,
				9,
				62,
				85,
				108,
				119
			],
			"name":"mChest",
			"translation":[
				-0.015367785468697548,
				0,
				0.2048799991607666
			]
		},
		{
			"children":[
				120
			],
			"name":"mSpine4",
			"translation":[
				0.015000000596046448,
				0,
				-0.20500004291534424
			]
		},
		{
			"children":[
				121
			],
			"name":"mSpine3",
			"translation":[
				-0.015000000596046448,
				0,
				0.20500004291534424
			]
		},
		{
			"children":[
				2,
				3,
				4,
				5,
				122
			],
			"name":"mTorso",
			"translation":[
				0,
				0,
				0.08407008647918701
			]
		},
		{
			"children":[
				123
			],
			"name":"mSpine2",
			"translation":[
				0,
				0,
				-0.08399999141693115
			]
		},
		{
			"children":[
				124
			],
			"name":"mSpine1",
			"translation":[
				0,
				0,
				0.08399999141693115
			]
		},
		{
			"name":"R_UPPER_LEG",
			"translation":[
				-0.019999999552965164,
				0.04999999701976776,
				-0.2200000286102295
			]
		},
		{
			"name":"R_LOWER_LEG",
			"translation":[
				-0.019999999552965164,
				0,
				-0.19999998807907104
			]
		},
		{
			"name":"R_FOOT",
			"translation":[
				0.07700000703334808,
				0,
				-0.04100000113248825
			]
		},
		{
			"name":"mToeRight",
			"translation":[
				0.10899999737739563,
				0,
				0
			]
		},
		{
			"children":[
				129
			],
			"name":"mFootRight",
			"translation":[
				0.1120000034570694,
				0,
				-0.06100000441074371
			]
		},
		{
			"children":[
				128,
				130
			],
			"name":"mAnkleRight",
			"translation":[
				-0.02886899933218956,
				0,
				-0.4684939980506897
			]
		},
		{
			"children":[
				127,
				131
			],
			"name":"mKneeRight",
			"translation":[
				-0.0007800012826919556,
				0.04863499850034714,
				-0.4909229278564453
			]
		},
		{
			"children":[
				126,
				132
			],
			"name":"mHipRight",
			"translation":[
				0.03361999988555908,
				-0.1288059949874878,
				-0.04109001159667969
			]
		},
		{
			"name":"L_UPPER_LEG",
			"translation":[
				-0.019999999552965164,
				-0.04999999701976776,
				-0.2200000286102295
			]
		},
		{
			"name":"L_LOWER_LEG",
			"translation":[
				-0.019999999552965164,
				0,
				-0.19999998807907104
			]
		},
		{
			"name":"L_FOOT",
			"translation":[
				0.07700000703334808,
				0,
				-0.04100000113248825
			]
		},
		{
			"name":"mToeLeft",
			"translation":[
				0.10900000482797623,
				0,
				0
			]
		},
		{
			"children":[
				137
			],
			"name":"mFootLeft",
			"translation":[
				0.1120000034570694,
				0,
				-0.06100000441074371
			]
		},
		{
			"children":[
				136,
				138
			],
			"name":"mAnkleLeft",
			"translation":[
				-0.02888699807226658,
				0.0013779997825622559,
				-0.46844902634620667
			]
		},
		{
			"children":[
				135,
				139
			],
			"name":"mKneeLeft",
			"translation":[
				-0.0008870027959346771,
				-0.04556799679994583,
				-0.4910559058189392
			]
		},
		{
			"children":[
				134,
				140
			],
			"name":"mHipLeft",
			"translation":[
				0.03375700116157532,
				0.12676499783992767,
				-0.04100000858306885
			]
		},
		{
			"name":"mTail6",
			"translation":[
				-0.09399998188018799,
				0,
				0
			]
		},
		{
			"children":[
				142
			],
			"name":"mTail5",
			"translation":[
				-0.1119999885559082,
				0,
				0
			]
		},
		{
			"children":[
				143
			],
			"name":"mTail4",
			"translation":[
				-0.1419999897480011,
				0,
				0
			]
		},
		{
			"children":[
				144
			],
			"name":"mTail3",
			"translation":[
				-0.1680000126361847,
				0,
				0
			]
		},
		{
			"children":[
				145
			],
			"name":"mTail2",
			"translation":[
				-0.19700002670288086,
				0,
				0
			]
		},
		{
			"children":[
				146
			],
			"name":"mTail1",
			"translation":[
				-0.11600000411272049,
				0,
				0.04700005054473877
			]
		},
		{
			"name":"mGroin",
			"translation":[
				0.06400000303983688,
				0,
				-0.09700000286102295
			]
		},
		{
			"name":"mHindLimb4Left",
			"translation":[
				0.11200001835823059,
				0,
				-0.06100000441074371
			]
		},
		{
			"children":[
				149
			],
			"name":"mHindLimb3Left",
			"translation":[
				-0.030000001192092896,
				-0.00299999862909317,
				-0.46800002455711365
			]
		},
		{
			"children":[
				150
			],
			"name":"mHindLimb2Left",
			"translation":[
				0.0020000040531158447,
				-0.046000003814697266,
				-0.49100005626678467
			]
		},
		{
			"children":[
				151
			],
			"name":"mHindLimb1Left",
			"translation":[
				-0.20400001108646393,
				0.1290000081062317,
				-0.125
			]
		},
		{
			"name":"mHindLimb4Right",
			"translation":[
				0.11200001835823059,
				0,
				-0.06100000441074371
			]
		},
		{
			"children":[
				153
			],
			"name":"mHindLimb3Right",
			"translation":[
				-0.030000001192092896,
				0.00299999862909317,
				-0.46800002455711365
			]
		},
		{
			"children":[
				154
			],
			"name":"mHindLimb2Right",
			"translation":[
				0.0020000040531158447,
				0.046000003814697266,
				-0.49100005626678467
			]
		},
		{
			"children":[
				155
			],
			"name":"mHindLimb1Right",
			"translation":[
				-0.20400001108646393,
				-0.1290000081062317,
				-0.125
			]
		},
		{
			"children":[
				152,
				156
			],
			"name":"mHindLimbsRoot",
			"translation":[
				-0.20000000298023224,
				0,
				0.08399999141693115
			]
		},
		{
			"children":[
				0,
				1,
				125,
				133,
				141,
				147,
				148,
				157
			],
			"name":"mPelvis",
			"rotation":[
				-0.7071067690849304,
				0,
				0,
				0.7071067690849304
			],
			"translation":[
				0,
				1.0670199394226074,
				0
			]
		},
		{
			"mesh":0,
			"name":"eyeBallLeftMesh",
			"skin":0
		},
		{
			"mesh":1,
			"name":"eyeBallRightMesh",
			"skin":0
		},
		{
			"mesh":2,
			"name":"headMesh",
			"skin":0
		},
		{
			"mesh":3,
			"name":"lowerBodyMesh",
			"skin":0
		},
		{
			"mesh":4,
			"name":"upperBodyMesh",
			"skin":0
		},
		{
			"children":[
				159,
				160,
				161,
				162,
				163,
				158
			],
			"name":"Avatar"
		}
	],
	"materials":[
		{
			"doubleSided":true,
			"name":"Material.001",
			"pbrMetallicRoughness":{
				"baseColorFactor":[
					0.6399999856948853,
					0.6399999856948853,
					0.6399999856948853,
					1
				],
				"metallicFactor":0,
				"roughnessFactor":0.5
			}
		}
	],
	"meshes":[
		{
			"name":"eyeBallLeftMesh.001",
			"primitives":[
				{
					"attributes":{
						"POSITION":0,
						"NORMAL":1,
						"TEXCOORD_0":2,
						"JOINTS_0":3,
						"WEIGHTS_0":4
					},
					"indices":5,
					"material":0
				}
			]
		},
		{
			"name":"eyeBallRightMesh.001",
			"primitives":[
				{
					"attributes":{
						"POSITION":7,
						"NORMAL":8,
						"TEXCOORD_0":9,
						"JOINTS_0":10,
						"WEIGHTS_0":11
					},
					"indices":5,
					"material":0
				}
			]
		},
		{
			"name":"headMesh",
			"primitives":[
				{
					"attributes":{
						"POSITION":12,
						"NORMAL":13,
						"TEXCOORD_0":14,
						"JOINTS_0":15,
						"WEIGHTS_0":16
					},
					"indices":17,
					"material":0
				}
			]
		},
		{
			"name":"lowerBodyMesh",
			"primitives":[
				{
					"attributes":{
						"POSITION":18,
						"NORMAL":19,
						"TEXCOORD_0":20,
						"JOINTS_0":21,
						"WEIGHTS_0":22
					},
					"indices":23,
					"material":0
				}
			]
		},
		{
			"name":"upperBodyMesh",
			"primitives":[
				{
					"attributes":{
						"POSITION":24,
						"NORMAL":25,
						"TEXCOORD_0":26,
						"JOINTS_0":27,
						"WEIGHTS_0":28
					},
					"indices":29,
					"material":0
				}
			]
		}
	],
	"skins":[
		{
			"inverseBindMatrices":6,
			"joints":[
				158,
				0,
				1,
				125,
				124,
				123,
				2,
				3,
				4,
				5,
				122,
				121,
				120,
				6,
				7,
				8,
				9,
				62,
				10,
				61,
				11,
				12,
				13,
				14,
				60,
				15,
				16,
				17,
				18,
				19,
				20,
				21,
				22,
				23,
				24,
				25,
				26,
				27,
				28,
				30,
				29,
				32,
				31,
				33,
				34,
				35,
				36,
				37,
				38,
				39,
				47,
				40,
				46,
				41,
				42,
				43,
				45,
				44,
				48,
				49,
				50,
				56,
				51,
				52,
				53,
				54,
				55,
				57,
				58,
				59,
				85,
				63,
				84,
				64,
				83,
				65,
				82,
				66,
				69,
				68,
				67,
				72,
				71,
				70,
				75,
				74,
				73,
				78,
				77,
				76,
				81,
				80,
				79,
				108,
				86,
				107,
				87,
				106,
				88,
				105,
				89,
				92,
				91,
				90,
				95,
				94,
				93,
				98,
				97,
				96,
				101,
				100,
				99,
				104,
				103,
				102,
				119,
				113,
				112,
				111,
				109,
				110,
				118,
				117,
				116,
				114,
				115,
				133,
				126,
				132,
				127,
				131,
				128,
				130,
				129,
				141,
				134,
				140,
				135,
				139,
				136,
				138,
				137,
				147,
				146,
				145,
				144,
				143,
				142,
				148,
				157,
				152,
				151,
				150,
				149,
				156,
				155,
				154,
				153
			],
			"name":"Avatar"
		}
	],
	"accessors":[
		{
			"bufferView":0,
			"componentType":5126,
			"count":145,
			"max":[
				0.0860849991440773,
				1.7768399715423584,
				-0.015006995759904385
			],
			"min":[
				0.0662669986486435,
				1.7347099781036377,
				-0.05714299529790878
			],
			"type":"VEC3"
		},
		{
			"bufferView":1,
			"componentType":5126,
			"count":145,
			"type":"VEC3"
		},
		{
			"bufferView":2,
			"componentType":5126,
			"count":145,
			"type":"VEC2"
		},
		{
			"bufferView":3,
			"componentType":5121,
			"count":145,
			"type":"VEC4"
		},
		{
			"bufferView":4,
			"componentType":5126,
			"count":145,
			"type":"VEC4"
		},
		{
			"bufferView":5,
			"componentType":5123,
			"count":816,
			"type":"SCALAR"
		},
		{
			"bufferView":6,
			"componentType":5126,
			"count":159,
			"type":"MAT4"
		},
		{
			"bufferView":7,
			"componentType":5126,
			"count":145,
			"max":[
				0.0860849991440773,
				1.7768399715423584,
				0.05714300274848938
			],
			"min":[
				0.0662669911980629,
				1.7347099781036377,
				0.01500700507313013
			],
			"type":"VEC3"
		},
		{
			"bufferView":8,
			"componentType":5126,
			"count":145,
			"type":"VEC3"
		},
		{
			"bufferView":9,
			"componentType":5126,
			"count":145,
			"type":"VEC2"
		},
		{
			"bufferView":10,
			"componentType":5121,
			"count":145,
			"type":"VEC4"
		},
		{
			"bufferView":11,
			"componentType":5126,
			"count":145,
			"type":"VEC4"
		},
		{
			"bufferView":12,
			"componentType":5126,
			"count":1063,
			"max":[
				0.11449900269508362,
				1.858359932899475,
				0.09110800176858902
			],
			"min":[
				-0.10632500052452087,
				1.6232500076293945,
				-0.09110800176858902
			],
			"type":"VEC3"
		},
		{
			"bufferView":13,
			"componentType":5126,
			"count":1063,
			"type":"VEC3"
		},
		{
			"bufferView":14,
			"componentType":5126,
			"count":1063,
			"type":"VEC2"
		},
		{
			"bufferView":15,
			"componentType":5121,
			"count":1063,
			"type":"VEC4"
		},
		{
			"bufferView":16,
			"componentType":5126,
			"count":1063,
			"type":"VEC4"
		},
		{
			"bufferView":17,
			"componentType":5123,
			"count":5532,
			"type":"SCALAR"
		},
		{
			"bufferView":18,
			"componentType":5126,
			"count":977,
			"max":[
				0.22005899250507355,
				1.144879937171936,
				0.17455199360847473
			],
			"min":[
				-0.1378459930419922,
				-0.006409999914467335,
				-0.17455199360847473
			],
			"type":"VEC3"
		},
		{
			"bufferView":19,
			"componentType":5126,
			"count":977,
			"type":"VEC3"
		},
		{
			"bufferView":20,
			"componentType":5126,
			"count":977,
			"type":"VEC2"
		},
		{
			"bufferView":21,
			"componentType":5121,
			"count":977,
			"type":"VEC4"
		},
		{
			"bufferView":22,
			"componentType":5126,
			"count":977,
			"type":"VEC4"
		},
		{
			"bufferView":23,
			"componentType":5123,
			"count":4962,
			"type":"SCALAR"
		},
		{
			"bufferView":24,
			"componentType":5126,
			"count":2211,
			"max":[
				0.14890499413013458,
				1.6308199167251587,
				0.8934839963912964
			],
			"min":[
				-0.1224120557308197,
				1.1378899812698364,
				-0.8934699892997742
			],
			"type":"VEC3"
		},
		{
			"bufferView":25,
			"componentType":5126,
			"count":2211,
			"type":"VEC3"
		},
		{
			"bufferView":26,
			"componentType":5126,
			"count":2211,
			"type":"VEC2"
		},
		{
			"bufferView":27,
			"componentType":5121,
			"count":2211,
			"type":"VEC4"
		},
		{
			"bufferView":28,
			"componentType":5126,
			"count":2211,
			"type":"VEC4"
		},
		{
			"bufferView":29,
			"componentType":5123,
			"count":11064,
			"type":"SCALAR"
		}
	],
	"bufferViews":[
		{
			"buffer":0,
			"byteLength":1740,
			"byteOffset":0,
			"target":34962
		},
		{
			"buffer":0,
			"byteLength":1740,
			"byteOffset":1740,
			"target":34962
		},
		{
			"buffer":0,
			"byteLength":1160,
			"byteOffset":3480,
			"target":34962
		},
		{
			"buffer":0,
			"byteLength":580,
			"byteOffset":4640,
			"target":34962
		},
		{
			"buffer":0,
			"byteLength":2320,
			"byteOffset":5220,
			"target":34962
		},
		{
			"buffer":0,
			"byteLength":1632,
			"byteOffset":7540,
			"target":34963
		},
		{
			"buffer":0,
			"byteLength":10176,
			"byteOffset":9172
		},
		{
			"buffer":0,
			"byteLength":1740,
			"byteOffset":19348,
			"target":34962
		},
		{
			"buffer":0,
			"byteLength":1740,
			"byteOffset":21088,
			"target":34962
		},
		{
			"buffer":0,
			"byteLength":1160,
			"byteOffset":22828,
			"target":34962
		},
		{
			"buffer":0,
			"byteLength":580,
			"byteOffset":23988,
			"target":34962
		},
		{
			"buffer":0,
			"byteLength":2320,
			"byteOffset":24568,
			"target":34962
		},
		{
			"buffer":0,
			"byteLength":12756,
			"byteOffset":26888,
			"target":34962
		},
		{
			"buffer":0,
			"byteLength":12756,
			"byteOffset":39644,
			"target":34962
		},
		{
			"buffer":0,
			"byteLength":8504,
			"byteOffset":52400,
			"target":34962
		},
		{
			"buffer":0,
			"byteLength":4252,
			"byteOffset":60904,
			"target":34962
		},
		{
			"buffer":0,
			"byteLength":17008,
			"byteOffset":65156,
			"target":34962
		},
		{
			"buffer":0,
			"byteLength":11064,
			"byteOffset":82164,
			"target":34963
		},
		{
			"buffer":0,
			"byteLength":11724,
			"byteOffset":93228,
			"target":34962
		},
		{
			"buffer":0,
			"byteLength":11724,
			"byteOffset":104952,
			"target":34962
		},
		{
			"buffer":0,
			"byteLength":7816,
			"byteOffset":116676,
			"target":34962
		},
		{
			"buffer":0,
			"byteLength":3908,
			"byteOffset":124492,
			"target":34962
		},
		{
			"buffer":0,
			"byteLength":15632,
			"byteOffset":128400,
			"target":34962
		},
		{
			"buffer":0,
			"byteLength":9924,
			"byteOffset":144032,
			"target":34963
		},
		{
			"buffer":0,
			"byteLength":26532,
			"byteOffset":153956,
			"target":34962
		},
		{
			"buffer":0,
			"byteLength":26532,
			"byteOffset":180488,
			"target":34962
		},
		{
			"buffer":0,
			"byteLength":17688,
			"byteOffset":207020,
			"target":34962
		},
		{
			"buffer":0,
			"byteLength":8844,
			"byteOffset":224708,
			"target":34962
		},
		{
			"buffer":0,
			"byteLength":35376,
			"byteOffset":233552,
			"target":34962
		},
		{
			"buffer":0,
			"byteLength":22128,
			"byteOffset":268928,
			"target":34963
		}
	],
	"buffers":[
		{
			"byteLength":291056,
			"uri":"female_2016_08_05.bin"
		}
	]
}
