{
	"asset":{
		"generator":"Khronos glTF Blender I/O v5.0.21",
		"version":"2.0"
	},
	"scene":0,
	"scenes":[
		{
			"name":"Scene",
			"nodes":[
				164
			]
		}
	],
	"nodes":[
		{
			"name":"PELVIS",
			"translation":[
				-0.009999999776482582,
				0,
				-0.019999980926513672
			]
		},
		{
			"name":"BUTT",
			"translation":[
				-0.05999999865889549,
				0,
				-0.10000002384185791
			]
		},
		{
			"name":"BELLY",
			"translation":[
				0.02800000086426735,
				0,
				0.04200005531311035
			]
		},
		{
			"name":"LEFT_HANDLE",
			"translation":[
				0,
				0.10000000149011612,
				0.060899972915649414
			]
		},
		{
			"name":"RIGHT_HANDLE",
			"translation":[
				0,
				-0.10000000149011612,
				0.060899972915649414
			]
		},
		{
			"name":"LOWER_BACK",
			"translation":[
				0,
				0,
				0.02415001392364502
			]
		},
		{
			"name":"CHEST",
			"translation":[
				0.029120013117790222,
				0,
				0.07350003719329834
			]
		},
		{
			"name":"LEFT_PEC",
			"translation":[
				0.12376005202531815,
				0.08281999826431274,
				0.044100046157836914
			]
		},
		{
			"name":"RIGHT_PEC",
			"translation":[
				0.12376005202531815,
				-0.08281999826431274,
				0.044100046157836914
			]
		},
		{
			"name":"UPPER_BACK",
			"translation":[
				0,
				0,
				0.017850041389465332
			]
		},
		{
			"name":"NECK",
			"translation":[
				0,
				0,
				0.024000048637390137
			]
		},
		{
			"name":"HEAD",
			"translation":[
				0.01850001886487007,
				0,
				0.064750075340271
			]
		},
		{
			"name":"mSkull",
			"translation":[
				0,
				0,
				0.0730750560760498
			]
		},
		{
			"name":"mEyeRight",
			"translation":[
				0.09108114242553711,
				-0.03607504069805145,
				0.0730750560760498
			]
		},
		{
			"name":"mEyeLeft",
			"translation":[
				0.09107652306556702,
				0.03607504069805145,
				0.0730750560760498
			]
		},
		{
			"name":"mFaceEyeAltRight",
			"translation":[
				0.06752507388591766,
				-0.034056078642606735,
				0.03073585033416748
			]
		},
		{
			"name":"mFaceEyeAltLeft",
			"translation":[
				0.06752507388591766,
				0.034056078642606735,
				0.03073585033416748
			]
		},
		{
			"name":"mFaceForeheadLeft",
			"translation":[
				0.05920005962252617,
				0.03311040997505188,
				0.07775616645812988
			]
		},
		{
			"name":"mFaceForeheadRight",
			"translation":[
				0.05920005962252617,
				-0.03311040997505188,
				0.07775616645812988
			]
		},
		{
			"name":"mFaceEyebrowOuterLeft",
			"translation":[
				0.05920005962252617,
				0.04868742823600769,
				0.043021202087402344
			]
		},
		{
			"name":"mFaceEyebrowCenterLeft",
			"translation":[
				0.064750075340271,
				0.04244644567370415,
				0.05046737194061279
			]
		},
		{
			"name":"mFaceEyebrowInnerLeft",
			"translation":[
				0.06937506794929504,
				0.02301125042140484,
				0.045842647552490234
			]
		},
		{
			"name":"mFaceEyebrowOuterRight",
			"translation":[
				0.05920005962252617,
				-0.04868742823600769,
				0.043021202087402344
			]
		},
		{
			"name":"mFaceEyebrowCenterRight",
			"translation":[
				0.064750075340271,
				-0.04244644567370415,
				0.05046737194061279
			]
		},
		{
			"name":"mFaceEyebrowInnerRight",
			"translation":[
				0.06937506794929504,
				-0.02301125042140484,
				0.045842647552490234
			]
		},
		{
			"name":"mFaceEyeLidUpperLeft",
			"translation":[
				0.06752508133649826,
				0.035957563668489456,
				0.030200719833374023
			]
		},
		{
			"name":"mFaceEyeLidLowerLeft",
			"translation":[
				0.06752508133649826,
				0.035957563668489456,
				0.030071258544921875
			]
		},
		{
			"name":"mFaceEyeLidUpperRight",
			"translation":[
				0.06752508133649826,
				-0.035957563668489456,
				0.030200719833374023
			]
		},
		{
			"name":"mFaceEyeLidLowerRight",
			"translation":[
				0.06752508133649826,
				-0.035957563668489456,
				0.030071258544921875
			]
		},
		{
			"name":"mFaceEar2Left",
			"translation":[
				-0.01899999938905239,
				0.017999999225139618,
				0.02499997615814209
			]
		},
		{
			"children":[
				29
			],
			"name":"mFaceEar1Left",
			"translation":[
				2.7706846594810486e-07,
				0.07567999511957169,
				0.0018128156661987305
			]
		},
		{
			"name":"mFaceEar2Right",
			"translation":[
				-0.01899999938905239,
				-0.017999999225139618,
				0.02499997615814209
			]
		},
		{
			"children":[
				31
			],
			"name":"mFaceEar1Right",
			"translation":[
				2.7706846594810486e-07,
				-0.07567999511957169,
				0.0018128156661987305
			]
		},
		{
			"name":"mFaceNoseLeft",
			"translation":[
				0.07955008745193481,
				0.014190440066158772,
				-0.004958629608154297
			]
		},
		{
			"name":"mFaceNoseCenter",
			"translation":[
				0.09435024857521057,
				0,
				-0.0013502836227416992
			]
		},
		{
			"name":"mFaceNoseRight",
			"translation":[
				0.07955008745193481,
				-0.014190440066158772,
				-0.004958629608154297
			]
		},
		{
			"name":"mFaceCheekLowerLeft",
			"translation":[
				0.046250052750110626,
				0.032164134085178375,
				-0.03032207489013672
			]
		},
		{
			"name":"mFaceCheekUpperLeft",
			"translation":[
				0.064750075340271,
				0.032164134085178375,
				-0.005864977836608887
			]
		},
		{
			"name":"mFaceCheekLowerRight",
			"translation":[
				0.046250052750110626,
				-0.032164134085178375,
				-0.03032207489013672
			]
		},
		{
			"name":"mFaceCheekUpperRight",
			"translation":[
				0.064750075340271,
				-0.032164134085178375,
				-0.005864977836608887
			]
		},
		{
			"name":"mFaceChin",
			"translation":[
				0.06428757309913635,
				0,
				-0.05132949352264404
			]
		},
		{
			"name":"mFaceLipLowerLeft",
			"translation":[
				0.041625045239925385,
				0,
				0
			]
		},
		{
			"name":"mFaceLipLowerRight",
			"translation":[
				0.041625045239925385,
				0,
				0
			]
		},
		{
			"name":"mFaceLipLowerCenter",
			"translation":[
				0.041625045239925385,
				0,
				0
			]
		},
		{
			"name":"mFaceTongueTip",
			"translation":[
				0.020350024104118347,
				0,
				0.006474971771240234
			]
		},
		{
			"children":[
				44
			],
			"name":"mFaceTongueBase",
			"translation":[
				0.03607504069805145,
				0,
				0.00462496280670166
			]
		},
		{
			"children":[
				41,
				42,
				43,
				45
			],
			"name":"mFaceTeethLower",
			"translation":[
				0.01942502148449421,
				0,
				-0.03775966167449951
			]
		},
		{
			"children":[
				40,
				46
			],
			"name":"mFaceJaw",
			"translation":[
				-0.0009250009898096323,
				0,
				-0.013559937477111816
			]
		},
		{
			"name":"mFaceJawShaper",
			"translation":[
				-2.3283064365386963e-10,
				0,
				8.702278137207031e-06
			]
		},
		{
			"name":"mFaceForeheadCenter",
			"translation":[
				0.06410256773233414,
				0,
				0.05849647521972656
			]
		},
		{
			"name":"mFaceNoseBase",
			"translation":[
				0.08695009350776672,
				0,
				-0.017890095710754395
			]
		},
		{
			"name":"mFaceLipUpperLeft",
			"translation":[
				0.041625045239925385,
				0,
				-0.0037603378295898438
			]
		},
		{
			"name":"mFaceLipUpperRight",
			"translation":[
				0.041625045239925385,
				0,
				-0.0037603378295898438
			]
		},
		{
			"name":"mFaceLipCornerLeft",
			"translation":[
				0.02590002678334713,
				-0.017575019970536232,
				-0.00924992561340332
			]
		},
		{
			"name":"mFaceLipCornerRight",
			"translation":[
				0.02590002678334713,
				0.017575019970536232,
				-0.00924992561340332
			]
		},
		{
			"name":"mFaceLipUpperCenter",
			"translation":[
				0.04162503778934479,
				0,
				-0.002446770668029785
			]
		},
		{
			"children":[
				51,
				52,
				53,
				54,
				55
			],
			"name":"mFaceTeethUpper",
			"translation":[
				0.01850002072751522,
				0,
				-0.02914738655090332
			]
		},
		{
			"name":"mFaceEyecornerInnerLeft",
			"translation":[
				0.06937506794929504,
				0.01812261901795864,
				0.028258204460144043
			]
		},
		{
			"name":"mFaceEyecornerInnerRight",
			"translation":[
				0.06937506794929504,
				-0.01812261901795864,
				0.028258204460144043
			]
		},
		{
			"name":"mFaceNoseBridge",
			"translation":[
				0.08417508751153946,
				0,
				0.01809251308441162
			]
		},
		{
			"children":[
				15,
				16,
				17,
				18,
				19,
				20,
				21,
				22,
				23,
				24,
				25,
				26,
				27,
				28,
				30,
				32,
				33,
				34,
				35,
				36,
				37,
				38,
				39,
				47,
				48,
				49,
				50,
				56,
				57,
				58,
				59
			],
			"name":"mFaceRoot",
			"translation":[
				0.023125022649765015,
				0,
				0.04300379753112793
			]
		},
		{
			"children":[
				11,
				12,
				13,
				14,
				60
			],
			"name":"mHead",
			"translation":[
				1.0244548320770264e-07,
				0,
				0.09076082706451416
			]
		},
		{
			"children":[
				10,
				61
			],
			"name":"mNeck",
			"translation":[
				-0.009887315332889557,
				0,
				0.26365411281585693
			]
		},
		{
			"name":"L_CLAVICLE",
			"translation":[
				0.019999999552965164,
				0,
				0.019999980926513672
			]
		},
		{
			"name":"L_UPPER_ARM",
			"translation":[
				0,
				0.17640002071857452,
				0.009999990463256836
			]
		},
		{
			"name":"L_LOWER_ARM",
			"translation":[
				0,
				0.12800002098083496,
				0
			]
		},
		{
			"name":"L_HAND",
			"translation":[
				0.009999999776482582,
				0.050000011920928955,
				0
			]
		},
		{
			"name":"mHandMiddle3Left",
			"translation":[
				-0.0010000001639127731,
				0.04899495840072632,
				-0.008000016212463379
			]
		},
		{
			"children":[
				67
			],
			"name":"mHandMiddle2Left",
			"translation":[
				-0.0010000001639127731,
				0.039999961853027344,
				-0.006000041961669922
			]
		},
		{
			"children":[
				68
			],
			"name":"mHandMiddle1Left",
			"translation":[
				0.012999998405575752,
				0.10100001096725464,
				0.014999985694885254
			]
		},
		{
			"name":"mHandIndex3Left",
			"translation":[
				0.014000000432133675,
				0.03200000524520874,
				-0.005999922752380371
			]
		},
		{
			"children":[
				70
			],
			"name":"mHandIndex2Left",
			"translation":[
				0.016999999061226845,
				0.035999953746795654,
				-0.006000041961669922
			]
		},
		{
			"children":[
				71
			],
			"name":"mHandIndex1Left",
			"translation":[
				0.03799999877810478,
				0.09700000286102295,
				0.014999985694885254
			]
		},
		{
			"name":"mHandRing3Left",
			"translation":[
				-0.013000000268220901,
				0.04000002145767212,
				-0.008999943733215332
			]
		},
		{
			"children":[
				73
			],
			"name":"mHandRing2Left",
			"translation":[
				-0.013000000268220901,
				0.03799998760223389,
				-0.008000016212463379
			]
		},
		{
			"children":[
				74
			],
			"name":"mHandRing1Left",
			"translation":[
				-0.010000001639127731,
				0.0989999771118164,
				0.008999943733215332
			]
		},
		{
			"name":"mHandPinky3Left",
			"translation":[
				-0.015000000596046448,
				0.018000006675720215,
				-0.004000067710876465
			]
		},
		{
			"children":[
				76
			],
			"name":"mHandPinky2Left",
			"translation":[
				-0.024000003933906555,
				0.025000035762786865,
				-0.006000041961669922
			]
		},
		{
			"children":[
				77
			],
			"name":"mHandPinky1Left",
			"translation":[
				-0.03099999949336052,
				0.09499996900558472,
				0.003000020980834961
			]
		},
		{
			"name":"mHandThumb3Left",
			"translation":[
				0.022999998182058334,
				0.03100001811981201,
				-0.001000046730041504
			]
		},
		{
			"children":[
				79
			],
			"name":"mHandThumb2Left",
			"translation":[
				0.02800000086426735,
				0.03200000524520874,
				-0.0009999275207519531
			]
		},
		{
			"children":[
				80
			],
			"name":"mHandThumb1Left",
			"translation":[
				0.03099999949336052,
				0.02599996328353882,
				0.003999948501586914
			]
		},
		{
			"children":[
				66,
				69,
				72,
				75,
				78,
				81
			],
			"name":"mWristLeft",
			"translation":[
				0,
				0.26220351457595825,
				0
			]
		},
		{
			"children":[
				65,
				82
			],
			"name":"mElbowLeft",
			"translation":[
				0,
				0.3645591139793396,
				0
			]
		},
		{
			"children":[
				64,
				83
			],
			"name":"mShoulderLeft",
			"translation":[
				0,
				0.11060139536857605,
				0
			]
		},
		{
			"children":[
				63,
				84
			],
			"name":"mCollarLeft",
			"translation":[
				-0.021763911470770836,
				0.07541097700595856,
				0.17366158962249756
			]
		},
		{
			"name":"R_CLAVICLE",
			"translation":[
				0.019999999552965164,
				0,
				0.019999980926513672
			]
		},
		{
			"name":"R_UPPER_ARM",
			"translation":[
				0,
				-0.17640002071857452,
				0.009999990463256836
			]
		},
		{
			"name":"R_LOWER_ARM",
			"translation":[
				0,
				-0.12800002098083496,
				0
			]
		},
		{
			"name":"R_HAND",
			"translation":[
				0.009999999776482582,
				-0.050000011920928955,
				0
			]
		},
		{
			"name":"mHandMiddle3Right",
			"translation":[
				-0.0010000001639127731,
				-0.04899489879608154,
				-0.008000016212463379
			]
		},
		{
			"children":[
				90
			],
			"name":"mHandMiddle2Right",
			"translation":[
				-0.0010000001639127731,
				-0.04000002145767212,
				-0.006000041961669922
			]
		},
		{
			"children":[
				91
			],
			"name":"mHandMiddle1Right",
			"translation":[
				0.012999998405575752,
				-0.10100001096725464,
				0.014999985694885254
			]
		},
		{
			"name":"mHandIndex3Right",
			"translation":[
				0.014000000432133675,
				-0.03200000524520874,
				-0.005999922752380371
			]
		},
		{
			"children":[
				93
			],
			"name":"mHandIndex2Right",
			"translation":[
				0.016999999061226845,
				-0.03600001335144043,
				-0.006000041961669922
			]
		},
		{
			"children":[
				94
			],
			"name":"mHandIndex1Right",
			"translation":[
				0.03799999877810478,
				-0.09700000286102295,
				0.014999985694885254
			]
		},
		{
			"name":"mHandRing3Right",
			"translation":[
				-0.013000000268220901,
				-0.039999961853027344,
				-0.008999943733215332
			]
		},
		{
			"children":[
				96
			],
			"name":"mHandRing2Right",
			"translation":[
				-0.013000000268220901,
				-0.03799998760223389,
				-0.008000016212463379
			]
		},
		{
			"children":[
				97
			],
			"name":"mHandRing1Right",
			"translation":[
				-0.010000001639127731,
				-0.09900003671646118,
				0.008999943733215332
			]
		},
		{
			"name":"mHandPinky3Right",
			"translation":[
				-0.015000000596046448,
				-0.018000006675720215,
				-0.004000067710876465
			]
		},
		{
			"children":[
				99
			],
			"name":"mHandPinky2Right",
			"translation":[
				-0.024000003933906555,
				-0.02499997615814209,
				-0.006000041961669922
			]
		},
		{
			"children":[
				100
			],
			"name":"mHandPinky1Right",
			"translation":[
				-0.03099999949336052,
				-0.09500002861022949,
				0.003000020980834961
			]
		},
		{
			"name":"mHandThumb3Right",
			"translation":[
				0.022999998182058334,
				-0.030999958515167236,
				-0.001000046730041504
			]
		},
		{
			"children":[
				102
			],
			"name":"mHandThumb2Right",
			"translation":[
				0.02800000086426735,
				-0.03200000524520874,
				-0.0009999275207519531
			]
		},
		{
			"children":[
				103
			],
			"name":"mHandThumb1Right",
			"translation":[
				0.03099999949336052,
				-0.026000022888183594,
				0.003999948501586914
			]
		},
		{
			"children":[
				89,
				92,
				95,
				98,
				101,
				104
			],
			"name":"mWristRight",
			"translation":[
				0,
				-0.2623993158340454,
				0
			]
		},
		{
			"children":[
				88,
				105
			],
			"name":"mElbowRight",
			"translation":[
				0,
				-0.3645601272583008,
				0
			]
		},
		{
			"children":[
				87,
				106
			],
			"name":"mShoulderRight",
			"translation":[
				0,
				-0.11118575930595398,
				0
			]
		},
		{
			"children":[
				86,
				107
			],
			"name":"mCollarRight",
			"translation":[
				-0.021763911470770836,
				-0.07574976980686188,
				0.17366158962249756
			]
		},
		{
			"name":"mWing4Left",
			"translation":[
				-0.17784005403518677,
				0.17473000288009644,
				0
			]
		},
		{
			"name":"mWing4FanLeft",
			"translation":[
				-0.17784005403518677,
				0.17473000288009644,
				0
			]
		},
		{
			"children":[
				109,
				110
			],
			"name":"mWing3Left",
			"translation":[
				-0.18824011087417603,
				0.18483000993728638,
				0
			]
		},
		{
			"children":[
				111
			],
			"name":"mWing2Left",
			"translation":[
				-0.17472010850906372,
				0.17069001495838165,
				0.0703500509262085
			]
		},
		{
			"children":[
				112
			],
			"name":"mWing1Left",
			"translation":[
				-0.10296004265546799,
				0.10604999959468842,
				0.19005000591278076
			]
		},
		{
			"name":"mWing4Right",
			"translation":[
				-0.17784005403518677,
				-0.17473000288009644,
				0
			]
		},
		{
			"name":"mWing4FanRight",
			"translation":[
				-0.17784005403518677,
				-0.17473000288009644,
				0
			]
		},
		{
			"children":[
				114,
				115
			],
			"name":"mWing3Right",
			"translation":[
				-0.18824011087417603,
				-0.18483000993728638,
				0
			]
		},
		{
			"children":[
				116
			],
			"name":"mWing2Right",
			"translation":[
				-0.17472010850906372,
				-0.17069001495838165,
				0.0703500509262085
			]
		},
		{
			"children":[
				117
			],
			"name":"mWing1Right",
			"translation":[
				-0.10296004265546799,
				-0.10604999959468842,
				0.19005000591278076
			]
		},
		{
			"children":[
				113,
				118
			],
			"name":"mWingsRoot",
			"translation":[
				-0.014560006558895111,
				0,
				0
			]
		},
		{
			"children":[
				6,
				7,
				8,
				9,
				62,
				85,
				108,
				119
			],
			"name":"mChest",
			"translation":[
				-0.015368087217211723,
				0,
				0.2151240110397339
			]
		},
		{
			"children":[
				120
			],
			"name":"mSpine4",
			"translation":[
				0.015000000596046448,
				0,
				-0.21525001525878906
			]
		},
		{
			"children":[
				121
			],
			"name":"mSpine3",
			"translation":[
				-0.015000000596046448,
				0,
				0.21525001525878906
			]
		},
		{
			"children":[
				2,
				3,
				4,
				5,
				122
			],
			"name":"mTorso",
			"translation":[
				0,
				0,
				0.08407437801361084
			]
		},
		{
			"children":[
				123
			],
			"name":"mSpine2",
			"translation":[
				0,
				0,
				-0.08399999141693115
			]
		},
		{
			"children":[
				124
			],
			"name":"mSpine1",
			"translation":[
				0,
				0,
				0.08399999141693115
			]
		},
		{
			"name":"R_UPPER_LEG",
			"translation":[
				-0.020999997854232788,
				0.05249999463558197,
				-0.21999996900558472
			]
		},
		{
			"name":"R_LOWER_LEG",
			"translation":[
				-0.02099999599158764,
				0,
				-0.21999996900558472
			]
		},
		{
			"name":"R_FOOT",
			"translation":[
				0.07700000703334808,
				0,
				-0.04100000113248825
			]
		},
		{
			"name":"mToeRight",
			"translation":[
				0.10900001227855682,
				0,
				0
			]
		},
		{
			"children":[
				129
			],
			"name":"mFootRight",
			"translation":[
				0.1120000034570694,
				0,
				-0.06100000441074371
			]
		},
		{
			"children":[
				128,
				130
			],
			"name":"mAnkleRight",
			"translation":[
				-0.0303119458258152,
				-1.564621925354004e-07,
				-0.5153425335884094
			]
		},
		{
			"children":[
				127,
				131
			],
			"name":"mKneeRight",
			"translation":[
				-0.0008190013468265533,
				0.051066748797893524,
				-0.4909183382987976
			]
		},
		{
			"children":[
				126,
				132
			],
			"name":"mHipRight",
			"translation":[
				0.033619947731494904,
				-0.12880559265613556,
				-0.04109013080596924
			]
		},
		{
			"name":"L_UPPER_LEG",
			"translation":[
				-0.020999997854232788,
				-0.05249999463558197,
				-0.21999996900558472
			]
		},
		{
			"name":"L_LOWER_LEG",
			"translation":[
				-0.02099999599158764,
				0,
				-0.21999996900558472
			]
		},
		{
			"name":"L_FOOT",
			"translation":[
				0.07700000703334808,
				0,
				-0.04100000113248825
			]
		},
		{
			"name":"mToeLeft",
			"translation":[
				0.10900000482797623,
				0,
				0
			]
		},
		{
			"children":[
				137
			],
			"name":"mFootLeft",
			"translation":[
				0.1120000034570694,
				0,
				-0.06100000441074371
			]
		},
		{
			"children":[
				136,
				138
			],
			"name":"mAnkleLeft",
			"translation":[
				-0.03033214807510376,
				0.001446947455406189,
				-0.5152935981750488
			]
		},
		{
			"children":[
				135,
				139
			],
			"name":"mKneeLeft",
			"translation":[
				-0.0009313486516475677,
				-0.04784637689590454,
				-0.4910513758659363
			]
		},
		{
			"children":[
				134,
				140
			],
			"name":"mHipLeft",
			"translation":[
				0.03375749662518501,
				0.1267654299736023,
				-0.04100000858306885
			]
		},
		{
			"name":"mTail6",
			"translation":[
				-0.09399998188018799,
				0,
				0
			]
		},
		{
			"children":[
				142
			],
			"name":"mTail5",
			"translation":[
				-0.1119999885559082,
				0,
				0
			]
		},
		{
			"children":[
				143
			],
			"name":"mTail4",
			"translation":[
				-0.1419999897480011,
				0,
				0
			]
		},
		{
			"children":[
				144
			],
			"name":"mTail3",
			"translation":[
				-0.1680000126361847,
				0,
				0
			]
		},
		{
			"children":[
				145
			],
			"name":"mTail2",
			"translation":[
				-0.19700002670288086,
				0,
				0
			]
		},
		{
			"children":[
				146
			],
			"name":"mTail1",
			"translation":[
				-0.11600000411272049,
				0,
				0.04700005054473877
			]
		},
		{
			"name":"mGroin",
			"translation":[
				0.06400000303983688,
				0,
				-0.09700000286102295
			]
		},
		{
			"name":"mHindLimb4Left",
			"translation":[
				0.11200001835823059,
				0,
				-0.06100000441074371
			]
		},
		{
			"children":[
				149
			],
			"name":"mHindLimb3Left",
			"translation":[
				-0.030000001192092896,
				-0.00299999862909317,
				-0.46800002455711365
			]
		},
		{
			"children":[
				150
			],
			"name":"mHindLimb2Left",
			"translation":[
				0.0020000040531158447,
				-0.046000003814697266,
				-0.49100005626678467
			]
		},
		{
			"children":[
				151
			],
			"name":"mHindLimb1Left",
			"translation":[
				-0.20400001108646393,
				0.1290000081062317,
				-0.125
			]
		},
		{
			"name":"mHindLimb4Right",
			"translation":[
				0.11200001835823059,
				0,
				-0.06100000441074371
			]
		},
		{
			"children":[
				153
			],
			"name":"mHindLimb3Right",
			"translation":[
				-0.030000001192092896,
				0.00299999862909317,
				-0.46800002455711365
			]
		},
		{
			"children":[
				154
			],
			"name":"mHindLimb2Right",
			"translation":[
				0.0020000040531158447,
				0.046000003814697266,
				-0.49100005626678467
			]
		},
		{
			"children":[
				155
			],
			"name":"mHindLimb1Right",
			"translation":[
				-0.20400001108646393,
				-0.1290000081062317,
				-0.125
			]
		},
		{
			"children":[
				152,
				156
			],
			"name":"mHindLimbsRoot",
			"translation":[
				-0.20000000298023224,
				0,
				0.08399999141693115
			]
		},
		{
			"children":[
				0,
				1,
				125,
				133,
				141,
				147,
				148,
				157
			],
			"name":"mPelvis",
			"rotation":[
				-0.7071067690849304,
				0,
				0,
				0.7071067690849304
			],
			"translation":[
				0,
				1.113860011100769,
				0
			]
		},
		{
			"mesh":0,
			"name":"eyeBallLeftMesh",
			"skin":0
		},
		{
			"mesh":1,
			"name":"eyeBallRightMesh",
			"skin":0
		},
		{
			"mesh":2,
			"name":"headMesh",
			"skin":0
		},
		{
			"mesh":3,
			"name":"lowerBodyMesh",
			"skin":0
		},
		{
			"mesh":4,
			"name":"upperBodyMesh",
			"skin":0
		},
		{
			"children":[
				159,
				160,
				161,
				162,
				163,
				158
			],
			"name":"Avatar"
		}
	],
	"materials":[
		{
			"doubleSided":true,
			"name":"Material.002",
			"pbrMetallicRoughness":{
				"baseColorFactor":[
					0.6399999856948853,
					0.6399999856948853,
					0.6399999856948853,
					1
				],
				"metallicFactor":0,
				"roughnessFactor":0.5
			}
		}
	],
	"meshes":[
		{
			"name":"eyeBallLeftMesh.002",
			"primitives":[
				{
					"attributes":{
						"POSITION":0,
						"NORMAL":1,
						"TEXCOORD_0":2,
						"JOINTS_0":3,
						"WEIGHTS_0":4
					},
					"indices":5,
					"material":0
				}
			]
		},
		{
			"name":"eyeBallRightMesh.002",
			"primitives":[
				{
					"attributes":{
						"POSITION":7,
						"NORMAL":8,
						"TEXCOORD_0":9,
						"JOINTS_0":10,
						"WEIGHTS_0":11
					},
					"indices":5,
					"material":0
				}
			]
		},
		{
			"name":"headMesh.001",
			"primitives":[
				{
					"attributes":{
						"POSITION":12,
						"NORMAL":13,
						"TEXCOORD_0":14,
						"JOINTS_0":15,
						"WEIGHTS_0":16
					},
					"indices":17,
					"material":0
				}
			]
		},
		{
			"name":"lowerBodyMesh.001",
			"primitives":[
				{
					"attributes":{
						"POSITION":18,
						"NORMAL":19,
						"TEXCOORD_0":20,
						"JOINTS_0":21,
						"WEIGHTS_0":22
					},
					"indices":23,
					"material":0
				}
			]
		},
		{
			"name":"upperBodyMesh.001",
			"primitives":[
				{
					"attributes":{
						"POSITION":24,
						"NORMAL":25,
						"TEXCOORD_0":26,
						"JOINTS_0":27,
						"WEIGHTS_0":28
					},
					"indices":29,
					"material":0
				}
			]
		}
	],
	"skins":[
		{
			"inverseBindMatrices":6,
			"joints":[
				158,
				0,
				1,
				125,
				124,
				123,
				2,
				3,
				4,
				5,
				122,
				121,
				120,
				6,
				7,
				8,
				9,
				62,
				10,
				61,
				11,
				12,
				13,
				14,
				60,
				15,
				16,
				17,
				18,
				19,
				20,
				21,
				22,
				23,
				24,
				25,
				26,
				27,
				28,
				30,
				29,
				32,
				31,
				33,
				34,
				35,
				36,
				37,
				38,
				39,
				47,
				40,
				46,
				41,
				42,
				43,
				45,
				44,
				48,
				49,
				50,
				56,
				51,
				52,
				53,
				54,
				55,
				57,
				58,
				59,
				85,
				63,
				84,
				64,
				83,
				65,
				82,
				66,
				69,
				68,
				67,
				72,
				71,
				70,
				75,
				74,
				73,
				78,
				77,
				76,
				81,
				80,
				79,
				108,
				86,
				107,
				87,
				106,
				88,
				105,
				89,
				92,
				91,
				90,
				95,
				94,
				93,
				98,
				97,
				96,
				101,
				100,
				99,
				104,
				103,
				102,
				119,
				113,
				112,
				111,
				109,
				110,
				118,
				117,
				116,
				114,
				115,
				133,
				126,
				132,
				127,
				131,
				128,
				130,
				129,
				141,
				134,
				140,
				135,
				139,
				136,
				138,
				137,
				147,
				146,
				145,
				144,
				143,
				142,
				148,
				157,
				152,
				151,
				150,
				149,
				156,
				155,
				154,
				153
			],
			"name":"Avatar"
		}
	],
	"accessors":[
		{
			"bufferView":0,
			"componentType":5126,
			"count":145,
			"max":[
				0.08560999482870102,
				1.861609935760498,
				-0.015006995759904385
			],
			"min":[
				0.06579100340604782,
				1.8194799423217773,
				-0.05714299529790878
			],
			"type":"VEC3"
		},
		{
			"bufferView":1,
			"componentType":5126,
			"count":145,
			"type":"VEC3"
		},
		{
			"bufferView":2,
			"componentType":5126,
			"count":145,
			"type":"VEC2"
		},
		{
			"bufferView":3,
			"componentType":5121,
			"count":145,
			"type":"VEC4"
		},
		{
			"bufferView":4,
			"componentType":5126,
			"count":145,
			"type":"VEC4"
		},
		{
			"bufferView":5,
			"componentType":5123,
			"count":816,
			"type":"SCALAR"
		},
		{
			"bufferView":6,
			"componentType":5126,
			"count":159,
			"type":"MAT4"
		},
		{
			"bufferView":7,
			"componentType":5126,
			"count":145,
			"max":[
				0.08560999482870102,
				1.861609935760498,
				0.05714300274848938
			],
			"min":[
				0.06579099595546722,
				1.8194799423217773,
				0.01500700507313013
			],
			"type":"VEC3"
		},
		{
			"bufferView":8,
			"componentType":5126,
			"count":145,
			"type":"VEC3"
		},
		{
			"bufferView":9,
			"componentType":5126,
			"count":145,
			"type":"VEC2"
		},
		{
			"bufferView":10,
			"componentType":5121,
			"count":145,
			"type":"VEC4"
		},
		{
			"bufferView":11,
			"componentType":5126,
			"count":145,
			"type":"VEC4"
		},
		{
			"bufferView":12,
			"componentType":5126,
			"count":1063,
			"max":[
				0.11907699704170227,
				1.9431298971176147,
				0.09110800176858902
			],
			"min":[
				-0.10680100321769714,
				1.6961299180984497,
				-0.09110800176858902
			],
			"type":"VEC3"
		},
		{
			"bufferView":13,
			"componentType":5126,
			"count":1063,
			"type":"VEC3"
		},
		{
			"bufferView":14,
			"componentType":5126,
			"count":1063,
			"type":"VEC2"
		},
		{
			"bufferView":15,
			"componentType":5121,
			"count":1063,
			"type":"VEC4"
		},
		{
			"bufferView":16,
			"componentType":5126,
			"count":1063,
			"type":"VEC4"
		},
		{
			"bufferView":17,
			"componentType":5123,
			"count":5532,
			"type":"SCALAR"
		},
		{
			"bufferView":18,
			"componentType":5126,
			"count":977,
			"max":[
				0.22796499729156494,
				1.1926000118255615,
				0.1771409958600998
			],
			"min":[
				-0.13294999301433563,
				-0.006415000185370445,
				-0.17722299695014954
			],
			"type":"VEC3"
		},
		{
			"bufferView":19,
			"componentType":5126,
			"count":977,
			"type":"VEC3"
		},
		{
			"bufferView":20,
			"componentType":5126,
			"count":977,
			"type":"VEC2"
		},
		{
			"bufferView":21,
			"componentType":5121,
			"count":977,
			"type":"VEC4"
		},
		{
			"bufferView":22,
			"componentType":5126,
			"count":977,
			"type":"VEC4"
		},
		{
			"bufferView":23,
			"componentType":5123,
			"count":4962,
			"type":"SCALAR"
		},
		{
			"bufferView":24,
			"componentType":5126,
			"count":2211,
			"max":[
				0.13858599960803986,
				1.7134099006652832,
				1.04367995262146
			],
			"min":[
				-0.16529400646686554,
				1.1847399473190308,
				-1.043470025062561
			],
			"type":"VEC3"
		},
		{
			"bufferView":25,
			"componentType":5126,
			"count":2211,
			"type":"VEC3"
		},
		{
			"bufferView":26,
			"componentType":5126,
			"count":2211,
			"type":"VEC2"
		},
		{
			"bufferView":27,
			"componentType":5121,
			"count":2211,
			"type":"VEC4"
		},
		{
			"bufferView":28,
			"componentType":5126,
			"count":2211,
			"type":"VEC4"
		},
		{
			"bufferView":29,
			"componentType":5123,
			"count":11064,
			"type":"SCALAR"
		}
	],
	"bufferViews":[
		{
			"buffer":0,
			"byteLength":1740,
			"byteOffset":0,
			"target":34962
		},
		{
			"buffer":0,
			"byteLength":1740,
			"byteOffset":1740,
			"target":34962
		},
		{
			"buffer":0,
			"byteLength":1160,
			"byteOffset":3480,
			"target":34962
		},
		{
			"buffer":0,
			"byteLength":580,
			"byteOffset":4640,
			"target":34962
		},
		{
			"buffer":0,
			"byteLength":2320,
			"byteOffset":5220,
			"target":34962
		},
		{
			"buffer":0,
			"byteLength":1632,
			"byteOffset":7540,
			"target":34963
		},
		{
			"buffer":0,
			"byteLength":10176,
			"byteOffset":9172
		},
		{
			"buffer":0,
			"byteLength":1740,
			"byteOffset":19348,
			"target":34962
		},
		{
			"buffer":0,
			"byteLength":1740,
			"byteOffset":21088,
			"target":34962
		},
		{
			"buffer":0,
			"byteLength":1160,
			"byteOffset":22828,
			"target":34962
		},
		{
			"buffer":0,
			"byteLength":580,
			"byteOffset":23988,
			"target":34962
		},
		{
			"buffer":0,
			"byteLength":2320,
			"byteOffset":24568,
			"target":34962
		},
		{
			"buffer":0,
			"byteLength":12756,
			"byteOffset":26888,
			"target":34962
		},
		{
			"buffer":0,
			"byteLength":12756,
			"byteOffset":39644,
			"target":34962
		},
		{
			"buffer":0,
			"byteLength":8504,
			"byteOffset":52400,
			"target":34962
		},
		{
			"buffer":0,
			"byteLength":4252,
			"byteOffset":60904,
			"target":34962
		},
		{
			"buffer":0,
			"byteLength":17008,
			"byteOffset":65156,
			"target":34962
		},
		{
			"buffer":0,
			"byteLength":11064,
			"byteOffset":82164,
			"target":34963
		},
		{
			"buffer":0,
			"byteLength":11724,
			"byteOffset":93228,
			"target":34962
		},
		{
			"buffer":0,
			"byteLength":11724,
			"byteOffset":104952,
			"target":34962
		},
		{
			"buffer":0,
			"byteLength":7816,
			"byteOffset":116676,
			"target":34962
		},
		{
			"buffer":0,
			"byteLength":3908,
			"byteOffset":124492,
			"target":34962
		},
		{
			"buffer":0,
			"byteLength":15632,
			"byteOffset":128400,
			"target":34962
		},
		{
			"buffer":0,
			"byteLength":9924,
			"byteOffset":144032,
			"target":34963
		},
		{
			"buffer":0,
			"byteLength":26532,
			"byteOffset":153956,
			"target":34962
		},
		{
			"buffer":0,
			"byteLength":26532,
			"byteOffset":180488,
			"target":34962
		},
		{
			"buffer":0,
			"byteLength":17688,
			"byteOffset":207020,
			"target":34962
		},
		{
			"buffer":0,
			"byteLength":8844,
			"byteOffset":224708,
			"target":34962
		},
		{
			"buffer":0,
			"byteLength":35376,
			"byteOffset":233552,
			"target":34962
		},
		{
			"buffer":0,
			"byteLength":22128,
			"byteOffset":268928,
			"target":34963
		}
	],
	"buffers":[
		{
			"byteLength":291056,
			"uri":"male_2016_08_05.bin"
		}
	]
}
